<?xml version="1.0" encoding="UTF-8"?>
<svg version="1.1" xmlns="http://www.w3.org/2000/svg" width="615" height="616">
<path d="M0 0 C3.99732777 0.74807134 6.4822619 3.12063367 9.484375 5.69921875 C10.81878867 6.80652644 12.15478713 7.91192649 13.4921875 9.015625 C14.18602539 9.59199707 14.87986328 10.16836914 15.59472656 10.76220703 C19.11601596 13.64143567 22.73589725 16.38798653 26.359375 19.13671875 C27.79432737 20.2290924 29.22922403 21.32153924 30.6640625 22.4140625 C31.35209961 22.93726074 32.04013672 23.46045898 32.74902344 23.99951172 C35.66828037 26.22305789 38.57719286 28.45992077 41.484375 30.69921875 C44.58591704 33.08767449 47.68763858 35.47584571 50.79296875 37.859375 C57.04205992 42.65736635 63.26961917 47.48182739 69.484375 52.32421875 C77.55931461 58.61442388 85.68224695 64.8398447 93.81933594 71.04931641 C101.74084043 77.09850202 109.62183949 83.19870648 117.484375 89.32421875 C124.0747706 94.45857249 130.69559712 99.55076898 137.33886719 104.61645508 C142.49404095 108.55188854 147.6196595 112.52388116 152.734375 116.51171875 C160.72482064 122.74100142 168.76499859 128.90299308 176.81933594 135.04931641 C184.74084043 141.09850202 192.62183949 147.19870648 200.484375 153.32421875 C207.0747706 158.45857249 213.69559712 163.55076898 220.33886719 168.61645508 C225.49404095 172.55188854 230.6196595 176.52388116 235.734375 180.51171875 C241.65027238 185.12370144 247.58548842 189.70867692 253.546875 194.26171875 C254.24514404 194.79603516 254.94341309 195.33035156 255.6628418 195.88085938 C258.94693672 198.39202117 262.23789185 200.89280324 265.546875 203.37109375 C266.14008545 203.8187207 266.7332959 204.26634766 267.34448242 204.72753906 C268.92566299 205.92028391 270.5114727 207.10688528 272.09765625 208.29296875 C276.78938804 212.24097416 279.4512857 215.56759002 280.046875 221.76171875 C279.36267772 229.97208611 274.43655868 234.05700757 268.50390625 239.19921875 C264.8943961 242.21308336 261.24265905 245.17262714 257.5859375 248.12890625 C254.01513217 251.11272988 250.61852505 254.25819827 247.21313477 257.42749023 C244.00174093 260.39858625 240.70827737 263.21118463 237.296875 265.94921875 C233.11200193 269.3151814 229.15123102 272.84347892 225.234375 276.51171875 C220.47346166 280.9704407 215.56969937 285.14969499 210.48046875 289.234375 C207.47118448 291.72998344 204.59498846 294.34937018 201.734375 297.01171875 C197.15346674 301.27472302 192.41586105 305.25958451 187.53515625 309.1796875 C183.38761271 312.63308149 179.47951366 316.32429571 175.55859375 320.03125 C171.18831079 323.86960364 167.54762967 326.92399155 161.609375 327.32421875 C160.78179687 327.39253906 159.95421875 327.46085937 159.1015625 327.53125 C156.734375 327.51171875 156.734375 327.51171875 154.9375 327.04296875 C145.52565128 324.77344495 134.06257321 325.53547266 125.734375 330.51171875 C116.80623024 336.01157263 111.85292465 343.13050185 108.859375 353.13671875 C106.52016534 362.99185057 107.64731722 372.5822335 112.48046875 381.53515625 C118.50091773 391.02533439 126.06195566 396.38173822 136.94140625 399.0078125 C148.11933338 401.02452942 157.89879058 398.36297036 167.41015625 392.30078125 C174.54307208 386.81023427 179.66269491 378.54878448 181.02490234 369.60400391 C181.36493611 366.8120439 181.68121837 364.02668019 181.8762207 361.22045898 C182.56719998 353.22625385 187.1328534 348.77241634 192.796875 343.69921875 C193.36833252 343.17932373 193.93979004 342.65942871 194.52856445 342.1237793 C198.93624966 338.14641033 203.49239597 334.37394503 208.12109375 330.65625 C210.73285123 328.51296919 213.23802802 326.28791545 215.734375 324.01171875 C219.13036182 320.91616679 222.59609031 317.96020668 226.171875 315.07421875 C230.945778 311.21346738 235.46825928 307.137348 239.984375 302.98046875 C243.54621729 299.78290579 247.26003333 296.79783532 250.984375 293.79296875 C253.81537078 291.44452907 256.52821098 289.00261973 259.234375 286.51171875 C263.7042262 282.39792966 268.32482393 278.54084578 273.05078125 274.7265625 C275.68146057 272.55539048 278.21379924 270.30930518 280.734375 268.01171875 C284.13036182 264.91616679 287.59609031 261.96020668 291.171875 259.07421875 C294.97525003 255.99835287 298.63520152 252.82418709 302.234375 249.51171875 C306.7042262 245.39792966 311.32482393 241.54084578 316.05078125 237.7265625 C318.68146057 235.55539048 321.21379924 233.30930518 323.734375 231.01171875 C327.13036182 227.91616679 330.59609031 224.96020668 334.171875 222.07421875 C337.97525003 218.99835287 341.63520152 215.82418709 345.234375 212.51171875 C349.7042262 208.39792966 354.32482393 204.54084578 359.05078125 200.7265625 C361.68146057 198.55539048 364.21379924 196.30930518 366.734375 194.01171875 C370.13036182 190.91616679 373.59609031 187.96020668 377.171875 185.07421875 C381.945778 181.21346738 386.46825928 177.137348 390.984375 172.98046875 C394.54621729 169.78290579 398.26003333 166.79783532 401.984375 163.79296875 C404.81537078 161.44452907 407.52821098 159.00261973 410.234375 156.51171875 C414.7042262 152.39792966 419.32482393 148.54084578 424.05078125 144.7265625 C426.68146057 142.55539048 429.21379924 140.30930518 431.734375 138.01171875 C435.13036182 134.91616679 438.59609031 131.96020668 442.171875 129.07421875 C445.97525003 125.99835287 449.63520152 122.82418709 453.234375 119.51171875 C457.7042262 115.39792966 462.32482393 111.54084578 467.05078125 107.7265625 C469.68146057 105.55539048 472.21379924 103.30930518 474.734375 101.01171875 C478.13036182 97.91616679 481.59609031 94.96020668 485.171875 92.07421875 C488.97525003 88.99835287 492.63520152 85.82418709 496.234375 82.51171875 C500.7042262 78.39792966 505.32482393 74.54084578 510.05078125 70.7265625 C512.68146057 68.55539048 515.21379924 66.30930518 517.734375 64.01171875 C521.13036182 60.91616679 524.59609031 57.96020668 528.171875 55.07421875 C532.945778 51.21346738 537.46825928 47.137348 541.984375 42.98046875 C545.54621729 39.78290579 549.26003333 36.79783532 552.984375 33.79296875 C555.81537078 31.44452907 558.52821098 29.00261973 561.234375 26.51171875 C565.6948584 22.40655124 570.30283027 18.554739 575.0234375 14.75390625 C578.65239036 11.75243804 582.10215219 8.57344912 585.54296875 5.359375 C588.94804332 2.48842977 590.73058965 1.47586927 595.234375 1.63671875 C599.15526534 2.61694133 600.28685159 3.37230461 602.734375 6.51171875 C603.23231965 9.29680628 603.23231965 9.29680628 603.22935963 12.57829952 C603.24223097 14.45622595 603.24223097 14.45622595 603.25536233 16.37209028 C603.24463942 17.76457808 603.23354593 19.15706306 603.22212219 20.54954529 C603.22458229 22.0278195 603.22879681 23.50609166 603.23461694 24.98435646 C603.24552866 29.0560663 603.2314048 33.12736848 603.21329653 37.19903862 C603.19809894 41.59290401 603.2059543 45.98673489 603.21098328 50.38061523 C603.21723 59.01938656 603.20214537 67.65799844 603.18025766 76.29673915 C603.15544322 86.45043034 603.15264609 96.6040931 603.15085389 106.75781012 C603.14696653 124.99946292 603.12447606 143.24104534 603.09106445 161.48266602 C603.05909292 178.95337215 603.0375554 196.42404139 603.02954102 213.89477539 C603.02904035 214.95755016 603.02853969 216.02032493 603.02802385 217.11530499 C603.02602056 221.39459967 603.02405795 225.67389437 603.02214683 229.9531891 C603.00034427 277.95916541 602.91105278 325.96476067 602.75784335 373.97049486 C602.73998213 379.60625459 602.72381897 385.24201693 602.7087326 390.87778473 C602.66689387 406.314013 602.60795424 421.74993558 602.50447655 437.18589973 C602.47660329 441.40276178 602.45717923 445.61951604 602.44588661 449.83645439 C602.43280809 454.53184842 602.40148496 459.22671775 602.35382295 463.92188525 C602.3400958 465.56435287 602.33282603 467.20689105 602.33295989 468.84941602 C602.32925265 478.00016505 602.24070043 485.28962351 595.98828125 492.53515625 C595.43011719 492.98117187 594.87195313 493.4271875 594.296875 493.88671875 C593.74128906 494.34820312 593.18570313 494.8096875 592.61328125 495.28515625 C588.67461141 497.85634612 585.14576424 498.76175516 580.47268677 498.77914429 C578.91251831 498.79193924 578.91251831 498.79193924 577.3208313 498.80499268 C576.19031342 498.8040863 575.05979553 498.80317993 573.89501953 498.80224609 C572.09662628 498.81232193 572.09662628 498.81232193 570.26190186 498.82260132 C566.98080121 498.83832783 563.69985262 498.84495538 560.41871881 498.84623289 C558.36646477 498.84765675 556.31423708 498.85193078 554.26198959 498.85722733 C547.09570385 498.87571721 539.9294924 498.88389922 532.76318359 498.88232422 C526.09375821 498.88112298 519.42465653 498.90222425 512.75531304 498.93381155 C507.02010302 498.96000211 501.28499856 498.97069036 495.54972923 498.9694134 C492.12835477 498.96890459 488.70726816 498.97454229 485.28595352 498.9957695 C481.46786902 499.0153686 477.6506175 499.00961426 473.83251953 498.99755859 C472.70605011 499.00879761 471.57958069 499.02003662 470.41897583 499.03161621 C463.96328972 498.97982898 459.97821798 498.37420661 454.734375 494.51171875 C451.86775311 491.18273849 451.06341534 488.02459393 451.26953125 483.60546875 C452.86098623 476.43723453 460.3969567 470.52776528 465.1796875 465.34765625 C467.52976426 462.73885545 469.73612256 460.07084352 471.921875 457.32421875 C475.89474201 452.43236115 480.04268165 447.72341808 484.296875 443.07421875 C484.91006592 442.38755127 485.52325684 441.70088379 486.1550293 440.9934082 C491.13017819 435.62602491 495.86459572 432.07010972 503.2265625 431.0078125 C504.90105469 430.97880859 504.90105469 430.97880859 506.609375 430.94921875 C516.20501717 430.47814133 523.03588399 428.4986396 530.82421875 422.81640625 C532.734375 421.51171875 532.734375 421.51171875 535.734375 420.51171875 C536.82841288 418.68933903 536.82841288 418.68933903 537.734375 416.51171875 C538.98351245 414.30971363 540.24627113 412.11619067 541.515625 409.92578125 C545.83108331 401.37785422 545.98912325 391.61265037 544.08203125 382.33984375 C540.69730187 372.05491498 534.6602064 365.57146387 525.578125 359.921875 C516.13543574 355.23944255 504.76884023 354.79882244 494.796875 358.13671875 C485.127351 362.22546406 477.42965166 368.91679615 473.421875 378.69921875 C470.17840781 387.38952113 470.1124987 395.38866454 471.734375 404.51171875 C472.43027339 415.12416916 469.2288916 421.59769618 462.3359375 429.61328125 C458.68502821 433.68081082 455.01430488 437.72752131 451.296875 441.734375 C448.63571155 444.61865428 446.04738492 447.55509008 443.4765625 450.51953125 C441.41937101 452.8719251 439.32840585 455.19206841 437.234375 457.51171875 C432.43529708 462.83506568 427.6935955 468.20035214 423.0546875 473.6640625 C417.45995761 480.24490054 411.77702388 486.70937773 405.890625 493.03125 C402.67147545 496.48885507 399.52193257 499.99200926 396.43359375 503.56640625 C394.44031072 505.84837165 392.39944473 508.08400449 390.359375 510.32421875 C387.30578633 513.70112857 384.39008295 517.14389007 381.546875 520.69921875 C376.64434014 526.76492093 371.31179463 532.39336852 365.96484375 538.06640625 C363.02404921 541.18947797 360.17038323 544.37443967 357.37109375 547.625 C355.35563728 549.94830662 353.29589038 552.2292034 351.234375 554.51171875 C346.43529708 559.83506568 341.6935955 565.20035214 337.0546875 570.6640625 C331.45995761 577.24490054 325.77702388 583.70937773 319.890625 590.03125 C316.67858976 593.48121378 313.53950942 596.98031701 310.44921875 600.5390625 C308.34733066 602.95695198 306.23460203 605.36429515 304.109375 607.76171875 C303.39523437 608.57125 302.68109375 609.38078125 301.9453125 610.21484375 C296.12827776 616.25798231 296.12827776 616.25798231 291.4296875 617.11328125 C290.25148438 617.12101563 289.07328125 617.12875 287.859375 617.13671875 C286.68632812 617.17023437 285.51328125 617.20375 284.3046875 617.23828125 C278.56821401 616.07090262 275.49917512 612.9645009 272.12988281 608.28173828 C270.44680714 605.64575242 268.86260906 602.96901863 267.296875 600.26171875 C266.06999078 598.19342856 264.84208669 596.12574309 263.61328125 594.05859375 C262.97922363 592.98416016 262.34516602 591.90972656 261.69189453 590.80273438 C258.43797603 585.33219042 255.08210049 579.92516561 251.734375 574.51171875 C250.39795621 572.34013987 249.06201794 570.1682652 247.7265625 567.99609375 C245.05172906 563.6476874 242.36787821 559.30500251 239.6796875 554.96484375 C238.40597965 552.89730194 237.13253096 550.82960045 235.859375 548.76171875 C235.27027344 547.81554687 234.68117187 546.869375 234.07421875 545.89453125 C230.46836481 540.01895928 227.47645885 534.75937481 227.359375 527.69921875 C227.33101562 526.92964844 227.30265625 526.16007813 227.2734375 525.3671875 C228.85593212 515.56376747 235.02177336 509.51028487 241.84907532 502.76882935 C242.90042344 501.71243036 243.95067836 500.65494247 244.99993771 499.59646881 C247.87363714 496.70389767 250.76263679 493.82705276 253.65448654 490.95264292 C256.7753857 487.84514148 259.88182066 484.72323717 262.99014282 481.60316467 C269.07618381 475.49876175 275.17556938 469.40786388 281.27977005 463.32162566 C286.24035175 458.37507776 291.19583646 453.42347638 296.14772606 448.46822739 C296.85288016 447.76259585 297.55803425 447.05696431 298.28455665 446.32995 C299.71707986 444.89640045 301.14958855 443.4628364 302.58208289 442.029258 C315.24393959 429.3588374 327.91837097 416.70106889 340.59936523 404.04980469 C352.90335544 391.77466026 365.1964022 379.48868388 377.47827148 367.19140625 C390.8560355 353.79688199 404.24013387 340.408745 417.63503331 327.03135478 C419.06321926 325.60501321 420.49140039 324.17866681 421.91957664 322.75231552 C422.62225983 322.05054443 423.32494301 321.34877334 424.04891962 320.62573645 C428.99999376 315.68026809 433.94659816 310.73035582 438.89156532 305.77878189 C444.9169094 299.74570729 450.94943398 293.71992296 456.99121491 287.70330735 C460.07352432 284.63349824 463.15256537 281.56059171 466.22303963 278.47894096 C469.0341215 275.65782027 471.85427678 272.84611393 474.68194284 270.04161893 C475.70291406 269.02580791 476.72053828 268.00661935 477.73442749 266.98373963 C488.22717845 256.40572111 488.22717845 256.40572111 496.00683594 255.14282227 C496.65426758 255.14209717 497.30169922 255.14137207 497.96875 255.140625 C498.70230713 255.12628418 499.43586426 255.11194336 500.19165039 255.09716797 C500.94824951 255.08959473 501.70484863 255.08202148 502.484375 255.07421875 C514.11087159 254.66029608 523.26260045 251.86789404 531.734375 243.51171875 C539.19008363 234.73453879 541.36572439 225.33662273 541.08203125 213.9765625 C540.0301484 203.4931907 535.03163838 195.38278373 527.484375 188.26171875 C519.38344316 181.65495879 508.92504648 179.70953761 498.734375 180.51171875 C488.74491671 182.31409808 480.74846521 187.44907266 474.3046875 195.2265625 C469.93682034 201.58278709 466.64662091 208.92619564 466.59375 216.70703125 C466.57441406 217.50625 466.55507813 218.30546875 466.53515625 219.12890625 C466.50178148 220.77710667 466.48311063 222.42568258 466.48046875 224.07421875 C466.047779 238.3302074 456.51576249 246.39200853 446.921875 255.69921875 C445.66230701 256.94224122 444.40383496 258.18637524 443.14648438 259.43164062 C438.48648121 264.02444117 433.83884704 268.58482373 428.87817383 272.85473633 C424.27134922 276.85333537 419.99216117 281.14619004 415.703125 285.48046875 C414.86777222 286.31960815 414.03241943 287.15874756 413.17175293 288.02331543 C410.52350414 290.68368775 407.87853094 293.34727888 405.234375 296.01171875 C401.74774899 299.52509148 398.25772574 303.03503846 394.765625 306.54296875 C393.58558899 307.73545227 393.58558899 307.73545227 392.38171387 308.95202637 C388.30303168 313.0485679 384.13693234 316.94346379 379.75695801 320.71398926 C375.90872094 324.13441217 372.32328428 327.82212253 368.703125 331.48046875 C367.86777222 332.31960815 367.03241943 333.15874756 366.17175293 334.02331543 C363.52350414 336.68368775 360.87853094 339.34727888 358.234375 342.01171875 C354.74774899 345.52509148 351.25772574 349.03503846 347.765625 352.54296875 C346.58558899 353.73545227 346.58558899 353.73545227 345.38171387 354.95202637 C341.92866324 358.42019688 338.45863531 361.80533252 334.74804688 364.99804688 C330.09514535 369.00360317 325.80152126 373.33776539 321.484375 377.69921875 C320.62682617 378.5605542 319.76927734 379.42188965 318.88574219 380.30932617 C316.16616611 383.04102995 313.449863 385.7759515 310.734375 388.51171875 C307.15399474 392.11883726 303.57022319 395.72253677 299.984375 399.32421875 C299.17581055 400.14108154 298.36724609 400.95794434 297.53417969 401.79956055 C293.40188015 405.94948642 289.1875239 409.90285554 284.74926758 413.72167969 C280.90297126 417.13874555 277.32068281 420.82475144 273.703125 424.48046875 C272.86777222 425.31960815 272.03241943 426.15874756 271.17175293 427.02331543 C268.52350414 429.68368775 265.87853094 432.34727888 263.234375 435.01171875 C259.74774899 438.52509148 256.25772574 442.03503846 252.765625 445.54296875 C251.58558899 446.73545227 251.58558899 446.73545227 250.38171387 447.95202637 C246.30303168 452.0485679 242.13693234 455.94346379 237.75695801 459.71398926 C233.90872094 463.13441217 230.32328428 466.82212253 226.703125 470.48046875 C225.86777222 471.31960815 225.03241943 472.15874756 224.17175293 473.02331543 C221.52350414 475.68368775 218.87853094 478.34727888 216.234375 481.01171875 C212.74774899 484.52509148 209.25772574 488.03503846 205.765625 491.54296875 C204.97893433 492.33795776 204.19224365 493.13294678 203.38171387 493.95202637 C199.92531556 497.42355922 196.45189645 500.81063484 192.73657227 504.00512695 C188.13846618 507.96328056 183.91650817 512.25901185 179.66796875 516.5859375 C177.94885786 518.3225529 176.22944789 520.05887227 174.50976562 521.79492188 C171.83170262 524.50399067 169.1560514 527.2153156 166.4855957 529.93188477 C163.88651031 532.57337892 161.27800191 535.20526621 158.66796875 537.8359375 C157.87611679 538.64641037 157.08426483 539.45688324 156.26841736 540.29191589 C146.79105441 549.81267087 146.79105441 549.81267087 139.85546875 551.0078125 C132.61861065 550.8498025 128.24861895 550.13591506 123.0546875 544.71484375 C119.04829091 539.94847596 116.06993052 534.58588227 112.99029541 529.19393921 C111.13041291 525.9391714 109.24542492 522.69895969 107.36328125 519.45703125 C106.97754944 518.79134628 106.59181763 518.12566132 106.19439697 517.43980408 C102.34087595 510.80299972 98.3613283 504.2474848 94.359375 497.69921875 C88.24256623 487.68047033 82.21238274 477.6138832 76.234375 467.51171875 C70.29406425 457.47462643 64.3060318 447.46991875 58.234375 437.51171875 C52.16271559 427.55351447 46.1749736 417.54864392 40.234375 407.51171875 C34.44119 397.72422612 28.61145977 387.96118718 22.70095825 378.24401855 C21.62572981 376.47610961 20.55187249 374.70737415 19.47827148 372.93847656 C16.58984012 368.18431864 13.69504419 363.43564658 10.74609375 358.71875 C10.10921631 357.68923218 10.10921631 357.68923218 9.45947266 356.63891602 C8.41419443 354.95114948 7.3581572 353.27005759 6.30078125 351.58984375 C2.9654251 345.0355778 1.93072739 338.66496061 3.734375 331.51171875 C6.76375114 322.45599006 14.50178366 317.15824997 21.734375 311.51171875 C22.30929688 311.06038574 22.88421875 310.60905273 23.4765625 310.14404297 C25.7913883 308.32740224 28.1075223 306.51257679 30.43139648 304.70751953 C35.24778158 300.94939554 39.87215236 296.99694429 44.48413086 292.99243164 C49.03722397 289.05920446 53.72855178 285.33988986 58.484375 281.65625 C62.67470732 278.39190629 66.72393963 274.9939941 70.734375 271.51171875 C75.85962601 267.061445 81.10017087 262.81329675 86.47558594 258.66943359 C90.16285809 255.80740807 93.69638184 252.82079627 97.18823242 249.72387695 C108.62335024 239.61925537 117.39141266 236.29972862 132.734375 236.63671875 C143.75234208 236.69365915 153.4738602 233.0766208 161.73828125 225.73046875 C170.77184734 216.20912911 173.31805595 204.8782878 173.06640625 192.171875 C172.57631477 182.1865131 168.0421147 174.75806254 161.1796875 167.703125 C153.09452553 160.45747665 143.45370784 156.56783934 132.546875 156.19921875 C121.25553778 157.12473819 111.42537122 160.70027544 103.5546875 169.14453125 C96.63616742 178.14157668 93.87608428 187.55930172 93.50488281 198.69287109 C93.08963566 209.98026576 90.61444061 217.54904061 82.14453125 225.46484375 C78.30248207 228.72778341 74.31448519 231.78211274 70.2890625 234.8125 C66.56694395 237.6201058 62.9288587 240.52643062 59.296875 243.44921875 C52.72610733 248.72725197 46.11214008 253.9472118 39.47705078 259.14404297 C37.70450687 260.53515967 35.93576065 261.93097579 34.16796875 263.328125 C10.3392314 282.1468011 10.3392314 282.1468011 3.734375 281.51171875 C0.0765532 279.47177967 -1.93508674 278.00752613 -4.265625 274.51171875 C-4.58124924 271.64262581 -4.58124924 271.64262581 -4.67254639 268.04788208 C-4.69140034 267.38166548 -4.7102543 266.71544889 -4.72967958 266.02904391 C-4.78979169 263.76704745 -4.83441665 261.50504914 -4.87792969 259.24267578 C-4.91565186 257.59613858 -4.95349091 255.94960405 -4.991436 254.30307198 C-5.47560641 231.74211133 -5.4491802 209.17256476 -5.46581364 186.60753012 C-5.46878271 182.77418093 -5.47289282 178.94083449 -5.47731781 175.10748672 C-5.48934658 164.43794538 -5.49976614 153.76840738 -5.5031929 143.09885979 C-5.50341247 142.42499291 -5.50363203 141.75112603 -5.50385825 141.05683894 C-5.50418567 140.04420132 -5.50418567 140.04420132 -5.5045197 139.01110637 C-5.50496312 137.64396024 -5.50540968 136.2768141 -5.50585938 134.90966797 C-5.5060808 134.2315746 -5.50630223 133.55348123 -5.50653037 132.85483958 C-5.51051297 121.7690959 -5.52810574 110.6834165 -5.5512189 99.59769784 C-5.57489967 88.1460898 -5.58713377 76.69452892 -5.58856082 65.24289334 C-5.5896087 58.8398371 -5.59551899 52.43687348 -5.61338043 46.03384018 C-5.62977243 40.04655192 -5.63206025 34.05942709 -5.62324142 28.07212448 C-5.6224675 25.87382063 -5.6268601 23.67550822 -5.63669968 21.47722626 C-5.64930646 18.48696899 -5.64360541 15.49730166 -5.63311768 12.50704956 C-5.64117408 11.63054461 -5.64923048 10.75403967 -5.65753102 9.85097396 C-5.60871101 3.93709435 -5.60871101 3.93709435 -3.88398051 1.79868519 C-2.265625 0.51171875 -2.265625 0.51171875 0 0 Z " fill="#7F969A" transform="translate(5.265625,-0.51171875)"/>
<path d="M0 0 C0.99 0.495 0.99 0.495 2 1 C-5.73461453 9.91832001 -14.08186729 18.1762994 -22.4621582 26.48046875 C-24.01389207 28.02208136 -25.56535246 29.5639693 -27.11656189 31.10610962 C-30.43993647 34.40947816 -33.76465285 37.7114882 -37.09026527 41.01260376 C-42.35199859 46.23676193 -47.60708814 51.46756854 -52.86064148 56.69995117 C-53.74962342 57.58529572 -54.63860536 58.47064028 -55.55452615 59.38281345 C-57.37121454 61.19209729 -59.18788694 63.00139719 -61.00454366 64.81071281 C-73.22328198 76.97957219 -85.44627101 89.14405384 -97.68774414 101.29003906 C-105.96385232 109.50169038 -114.22925283 117.72395371 -122.48247212 125.95861149 C-126.84413364 130.30960802 -131.21108091 134.65498629 -135.59121132 138.98739624 C-139.70737463 143.05886902 -143.80927791 147.14418056 -147.90078163 151.24042892 C-149.40158142 152.73798897 -150.90751363 154.23042637 -152.41898727 155.71721268 C-164.2593545 166.70586351 -164.2593545 166.70586351 -169.14793873 181.56843567 C-168.93224744 185.11360092 -167.41780154 187.90080586 -165.8125 191 C-165.45792725 191.69512695 -165.10335449 192.39025391 -164.73803711 193.10644531 C-160.78686033 200.67447493 -156.2501337 207.8703682 -151.703125 215.08984375 C-147.87032127 221.17791258 -144.14190147 227.32662686 -140.42004395 233.4828186 C-139.31994287 235.30020425 -138.21674188 237.11566656 -137.11230469 238.93041992 C-134.01732662 244.0165192 -130.92957172 249.10523695 -127.90625 254.234375 C-127.04181583 255.67717271 -126.17724697 257.11988974 -125.3125 258.5625 C-124.9513208 259.19260986 -124.5901416 259.82271973 -124.21801758 260.47192383 C-121.76867136 264.5128574 -119.36129585 266.24674659 -115 268 C-115.33 268.66 -115.66 269.32 -116 270 C-123.43111484 268.03294019 -127.29648463 260.84568142 -130.97998047 254.59643555 C-131.44033691 253.80148682 -131.90069336 253.00653809 -132.375 252.1875 C-133.42556641 250.40535491 -134.47773306 248.62415247 -135.53125 246.84375 C-136.08941406 245.89886719 -136.64757812 244.95398438 -137.22265625 243.98046875 C-140.38287183 238.68103032 -143.63259592 233.43690228 -146.875 228.1875 C-148.22931271 225.98837119 -149.58347908 223.78915223 -150.9375 221.58984375 C-152.97048852 218.2896583 -155.0056412 214.99089361 -157.046875 211.69580078 C-158.99494745 208.55047547 -160.93555359 205.40064921 -162.875 202.25 C-163.75841064 200.83110474 -163.75841064 200.83110474 -164.65966797 199.38354492 C-168.26573863 193.50775838 -171.25791096 188.24796934 -171.375 181.1875 C-171.40335938 180.41792969 -171.43171875 179.64835938 -171.4609375 178.85546875 C-170.1594603 170.79292779 -165.8798844 165.14850084 -160.17901611 159.57774353 C-159.1509597 158.54327893 -159.1509597 158.54327893 -158.10213447 157.48791605 C-155.81838754 155.19597866 -153.51731899 152.92229357 -151.21582031 150.64819336 C-149.56885673 149.00264109 -147.92299523 147.35598516 -146.27815247 145.70831299 C-141.82064872 141.24937695 -137.34791711 136.80600631 -132.87226582 132.36529613 C-128.66783078 128.1889822 -124.47496323 124.00111342 -120.2819986 119.81328828 C-111.9804722 111.52268621 -103.66785788 103.24329545 -95.34814453 94.97094727 C-87.26967443 86.93842101 -79.19650892 78.90062377 -71.13037109 70.85571289 C-70.63259373 70.35924914 -70.13481636 69.86278539 -69.62195483 69.35127728 C-67.1246114 66.86045937 -64.62737138 64.36953781 -62.13018274 61.87856472 C-41.43613054 41.23628753 -20.72383286 20.61237783 0 0 Z " fill="#01B2F3" transform="translate(404,346)"/>
<path d="M0 0 C0.99 0.495 0.99 0.495 2 1 C2 13.9890909 -10.19288851 23.64668125 -18.56103516 32.46826172 C-20.88732454 34.94453243 -23.10840006 37.50676047 -25.328125 40.078125 C-27.35758073 42.41105074 -29.427647 44.70511245 -31.5 47 C-36.29907792 52.32334693 -41.0407795 57.68863339 -45.6796875 63.15234375 C-51.27441739 69.73318179 -56.95735112 76.19765898 -62.84375 82.51953125 C-66.06289955 85.97713632 -69.21244243 89.48029051 -72.30078125 93.0546875 C-74.29406428 95.3366529 -76.33493027 97.57228574 -78.375 99.8125 C-81.42858867 103.18940982 -84.34429205 106.63217132 -87.1875 110.1875 C-92.09003486 116.25320218 -97.42258037 121.88164977 -102.76953125 127.5546875 C-105.71032579 130.67775922 -108.56399177 133.86272092 -111.36328125 137.11328125 C-113.37873772 139.43658787 -115.43848462 141.71748465 -117.5 144 C-122.29907792 149.32334693 -127.0407795 154.68863339 -131.6796875 160.15234375 C-137.27441739 166.73318179 -142.95735112 173.19765898 -148.84375 179.51953125 C-152.05578524 182.96949503 -155.19486558 186.46859826 -158.28515625 190.02734375 C-160.38704434 192.44523323 -162.49977297 194.8525764 -164.625 197.25 C-165.33914063 198.05953125 -166.05328125 198.8690625 -166.7890625 199.703125 C-169.04471434 202.04645236 -171.41904069 204.02579253 -174 206 C-174.99 205.34 -175.98 204.68 -177 204 C-175.989375 203.505 -174.97875 203.01 -173.9375 202.5 C-169.28657585 199.83434007 -166.38069 196.08207797 -163 192 C-161.50735144 190.32674627 -160.00704266 188.66030124 -158.5 187 C-155.81016569 184.01937279 -153.13689636 181.02754767 -150.5 178 C-147.86310364 174.97245233 -145.18983431 171.98062721 -142.5 169 C-137.70092208 163.67665307 -132.9592205 158.31136661 -128.3203125 152.84765625 C-122.77432235 146.3247426 -117.13479432 139.93340797 -111.28588867 133.68041992 C-108.2616298 130.42668335 -105.39999502 127.09759081 -102.625 123.625 C-97.79751343 117.60826035 -92.51729536 112.05469097 -87.23046875 106.4453125 C-84.28967421 103.32224078 -81.43600823 100.13727908 -78.63671875 96.88671875 C-76.62126228 94.56341213 -74.56151538 92.28251535 -72.5 90 C-69.23295665 86.37976277 -66.00479224 82.73016435 -62.8046875 79.05078125 C-60.77041859 76.73911203 -58.6977769 74.4646857 -56.625 72.1875 C-53.57141133 68.81059018 -50.65570795 65.36782868 -47.8125 61.8125 C-42.90996514 55.74679782 -37.57741963 50.11835023 -32.23046875 44.4453125 C-29.2864525 41.31881938 -26.4289331 38.13117158 -23.62890625 34.875 C-21.66334911 32.61248819 -19.64326691 30.40309317 -17.625 28.1875 C-5.83649841 15.71924019 -5.83649841 15.71924019 0 0 Z " fill="#01B0EF" transform="translate(474,410)"/>
<path d="M0 0 C2.46800047 1.15173355 4.04783565 2.04783565 6 4 C6.24839699 5.87705243 6.24839699 5.87705243 6.24609566 8.21290779 C6.25007775 9.10167236 6.25405985 9.99043694 6.25816262 10.90613377 C6.25233693 11.88860896 6.24651125 12.87108414 6.24050903 13.8833313 C6.24221788 14.92226245 6.24392673 15.9611936 6.24568737 17.03160751 C6.24899873 20.53562608 6.23795149 24.03945591 6.22705078 27.54345703 C6.22648702 30.04618322 6.22680253 32.54890974 6.22793579 35.05163574 C6.22839219 40.45152338 6.22269551 45.85134952 6.21146011 51.25122452 C6.19522607 59.05858413 6.18999926 66.86592035 6.18748413 74.67329501 C6.18310373 87.33933881 6.16978528 100.00535689 6.15087891 112.67138672 C6.13252903 124.97737499 6.11836816 137.28335628 6.10986328 149.58935547 C6.10933783 150.3475269 6.10881239 151.10569833 6.10827102 151.88684465 C6.105661 155.69025744 6.10313357 159.49367027 6.10064721 163.29708314 C6.07990396 194.8647408 6.04452069 226.4323665 6 258 C5.67 258 5.34 258 5 258 C3.88390556 245.08981648 3.82821112 232.2165758 3.79467773 219.26586914 C3.78508131 216.89915299 3.77507024 214.5324385 3.76467896 212.16572571 C3.73781482 205.78253068 3.71670601 199.3993284 3.69667697 193.01610875 C3.676933 187.00842847 3.65282441 181.00076694 3.62875474 174.99310284 C3.58126629 163.10519598 3.53795224 151.21727781 3.49731445 139.3293457 C3.45786349 127.79125084 3.41641479 116.25316596 3.37231445 104.71508789 C3.36959018 104.0021498 3.36686591 103.28921172 3.36405908 102.55466945 C3.35037803 98.97755174 3.33665807 95.40043418 3.32291877 91.82331669 C3.20924904 62.21556556 3.10244589 32.60779215 3 3 C1.68 2.34 0.36 1.68 -1 1 C-0.67 0.67 -0.34 0.34 0 0 Z " fill="#F69A62" transform="translate(602,2)"/>
<path d="M0 0 C0.66 0 1.32 0 2 0 C0.64120339 5.762627 -2.14905686 8.69494828 -6.2578125 12.68359375 C-7.19063553 13.6114846 -7.19063553 13.6114846 -8.14230347 14.55812073 C-10.12734181 16.52746689 -12.12609125 18.48224503 -14.125 20.4375 C-15.44617677 21.74717559 -16.76649813 23.0577147 -18.0859375 24.36914062 C-19.37163293 25.64139642 -20.6580685 26.91290478 -21.9453125 28.18359375 C-22.82547531 29.05267616 -22.82547531 29.05267616 -23.72341919 29.9393158 C-26.69780903 32.8471421 -29.7236034 35.65165948 -32.87646484 38.36547852 C-37.47822889 42.35485615 -41.7491732 46.64150408 -46.03125 50.96875 C-46.86660278 51.8078894 -47.70195557 52.64702881 -48.56262207 53.51159668 C-51.21087086 56.171969 -53.85584406 58.83556013 -56.5 61.5 C-59.98662601 65.01337273 -63.47664926 68.52331971 -66.96875 72.03125 C-67.75544067 72.82623901 -68.54213135 73.62122803 -69.35266113 74.44030762 C-73.43134332 78.53684915 -77.59744266 82.43174504 -81.97741699 86.20227051 C-85.82565406 89.62269342 -89.41109072 93.31040378 -93.03125 96.96875 C-93.86660278 97.8078894 -94.70195557 98.64702881 -95.56262207 99.51159668 C-98.21087086 102.171969 -100.85584406 104.83556013 -103.5 107.5 C-106.98662601 111.01337273 -110.47664926 114.52331971 -113.96875 118.03125 C-114.75544067 118.82623901 -115.54213135 119.62122803 -116.35266113 120.44030762 C-120.43009767 124.53559804 -124.59431324 128.43075026 -128.97302246 132.20010376 C-132.83974722 135.63364124 -136.45037255 139.32891051 -140.09375 142.99609375 C-140.92588013 143.82963882 -141.75801025 144.6631839 -142.61535645 145.52198792 C-145.24594935 148.15813262 -147.87302441 150.79775105 -150.5 153.4375 C-152.29403855 155.23655979 -154.08830715 157.0353902 -155.8828125 158.83398438 C-160.25787125 163.22000812 -164.63005512 167.60888142 -169 172 C-169.99 171.67 -170.98 171.34 -172 171 C-167.5924815 166.56759541 -163.18156108 162.13861354 -158.76757812 157.71264648 C-157.26926293 156.20933045 -155.77184993 154.70511464 -154.27539062 153.19995117 C-152.11309775 151.0254053 -149.94748387 148.8542129 -147.78125 146.68359375 C-147.12257935 146.01976181 -146.46390869 145.35592987 -145.78527832 144.67198181 C-142.63385269 141.52018429 -139.44232165 138.47551502 -136.06445312 135.56665039 C-131.55503208 131.67194825 -127.37626535 127.48421387 -123.1875 123.25 C-122.37434326 122.43305664 -121.56118652 121.61611328 -120.72338867 120.77441406 C-118.14646703 118.18537329 -115.57282375 115.59311263 -113 113 C-109.60712847 109.58037281 -106.21085343 106.16417851 -102.8125 102.75 C-101.66527466 101.59032715 -101.66527466 101.59032715 -100.49487305 100.40722656 C-97.10162188 96.99871228 -93.68832543 93.67767034 -90.04101562 90.54101562 C-85.30161679 86.45892697 -80.93015772 82.03661479 -76.53125 77.59375 C-75.65150513 76.71021851 -74.77176025 75.82668701 -73.86535645 74.91638184 C-71.07445494 72.11334867 -68.28670768 69.30720084 -65.5 66.5 C-61.82601262 62.7989945 -58.14834398 59.10168178 -54.46875 55.40625 C-53.63831177 54.56751343 -52.80787354 53.72877686 -51.95227051 52.86462402 C-47.75283705 48.6477293 -43.47833064 44.61506423 -38.96685791 40.73532104 C-35.37992367 37.5706377 -32.01677597 34.17950007 -28.6328125 30.80078125 C-27.87201385 30.043311 -27.11121521 29.28584076 -26.32736206 28.50541687 C-24.73451585 26.91759699 -23.14298853 25.32845301 -21.55273438 23.73803711 C-19.11608228 21.30359035 -16.67151662 18.87727723 -14.2265625 16.45117188 C-12.67399059 14.90153101 -11.12189031 13.35141745 -9.5703125 11.80078125 C-8.84014923 11.0778035 -8.10998596 10.35482574 -7.35769653 9.60993958 C-6.34556595 8.59319405 -6.34556595 8.59319405 -5.31298828 7.5559082 C-4.42318771 6.66824516 -4.42318771 6.66824516 -3.51541138 5.76264954 C-1.94834358 3.93991587 -0.97591023 2.18797624 0 0 Z " fill="#ECEF55" transform="translate(467,234)"/>
<path d="M0 0 C0 3 0 3 -2.23828125 5.3828125 C-3.25475889 6.3060539 -4.2801535 7.21953759 -5.3125 8.125 C-5.85503418 8.61145996 -6.39756836 9.09791992 -6.95654297 9.59912109 C-11.31264184 13.47416284 -15.8106696 17.16417811 -20.3515625 20.8203125 C-22.97275119 22.97757399 -25.49154281 25.21311 -28 27.5 C-31.39598682 30.59555196 -34.86171531 33.55151207 -38.4375 36.4375 C-43.211403 40.29825137 -47.73388428 44.37437075 -52.25 48.53125 C-55.81184229 51.72881296 -59.52565833 54.71388343 -63.25 57.71875 C-66.08099578 60.06718968 -68.79383598 62.50909902 -71.5 65 C-75.9698512 69.11378909 -80.59044893 72.97087297 -85.31640625 76.78515625 C-87.94708557 78.95632827 -90.47942424 81.20241357 -93 83.5 C-96.39598682 86.59555196 -99.86171531 89.55151207 -103.4375 92.4375 C-108.26090517 96.34118808 -112.85930263 100.44044671 -117.421875 104.64453125 C-119.72429583 106.74810664 -122.06589306 108.78785037 -124.4375 110.8125 C-127.33323098 113.31147439 -129.6301075 115.99205951 -132 119 C-132.66 119 -133.32 119 -134 119 C-131.7276986 110.66822819 -123.21129522 105.46134267 -116.82421875 100.3203125 C-114.14206334 98.11671594 -111.56373579 95.83956175 -109 93.5 C-105.60401318 90.40444804 -102.13828469 87.44848793 -98.5625 84.5625 C-94.75912497 81.48663412 -91.09917348 78.31246834 -87.5 75 C-83.0301488 70.88621091 -78.40955107 67.02912703 -73.68359375 63.21484375 C-71.05291443 61.04367173 -68.52057576 58.79758643 -66 56.5 C-62.60401318 53.40444804 -59.13828469 50.44848793 -55.5625 47.5625 C-50.788597 43.70174863 -46.26611572 39.62562925 -41.75 35.46875 C-38.18815771 32.27118704 -34.47434167 29.28611657 -30.75 26.28125 C-27.91900422 23.93281032 -25.20616402 21.49090098 -22.5 19 C-17.17693421 14.10338869 -11.6284655 9.53850869 -6 5 C-3.99287264 3.34160134 -1.99573497 1.67210227 0 0 Z M-135 119 C-134.34 119.33 -133.68 119.66 -133 120 C-132.43776016 131.24479678 -134.70374153 142.90745092 -142.234375 151.5703125 C-146.73201346 156.24513066 -150.99629444 160.42698333 -157 163 C-157.99 162.67 -158.98 162.34 -160 162 C-157.29808702 159.91549247 -154.53320189 158.09313589 -151.625 156.3125 C-143.91035437 151.15673518 -139.40724045 143.91141898 -137 135 C-136.0521491 129.70182258 -135.50499884 124.35564556 -135 119 Z M-163 162 C-162.01 162 -161.02 162 -160 162 C-160 162.66 -160 163.32 -160 164 C-160.99 163.67 -161.98 163.34 -163 163 C-163 162.67 -163 162.34 -163 162 Z " fill="#CEE481" transform="translate(323,236)"/>
<path d="M0 0 C0.33 0 0.66 0 1 0 C1.11338278 46.75869961 1.09430315 93.51786537 0.73654175 140.27554321 C0.70227684 144.80643438 0.67508851 149.33728509 0.65383911 153.86825562 C0.62829065 159.21991247 0.58829915 164.57126431 0.53687668 169.92273331 C0.52022617 171.899928 0.50864789 173.87717251 0.50236893 175.85442734 C0.49285885 178.55180506 0.4650495 181.24837488 0.43237305 183.94555664 C0.43452615 185.13725605 0.43452615 185.13725605 0.43672276 186.3530302 C0.39872742 188.53749084 0.39872742 188.53749084 0 192 C-1.485 192.99 -1.485 192.99 -3 194 C-2.99484627 193.2715217 -2.98969254 192.5430434 -2.98438263 191.79249001 C-2.85815533 173.94133659 -2.73295384 156.09017624 -2.60884857 138.23900795 C-2.54880461 129.60578694 -2.48843264 120.97256847 -2.42724609 112.33935547 C-2.37382204 104.80127912 -2.32105655 97.26319847 -2.26903296 89.72511232 C-2.24154921 85.74593352 -2.21376909 81.76675735 -2.18519592 77.78758621 C-2.15308727 73.3097319 -2.12202688 68.83187129 -2.09179688 64.35400391 C-2.08696509 63.64642291 -2.08213331 62.93884192 -2.07715511 62.20981908 C-2.00634975 51.63936293 -1.98036372 41.06939054 -2.02727509 30.49871254 C-2.09764556 4.19529112 -2.09764556 4.19529112 0 0 Z " fill="#F22796" transform="translate(607,290)"/>
<path d="M0 0 C0.99 0.495 0.99 0.495 2 1 C-6.09294429 10.35188242 -14.87411047 19.00193216 -23.62890625 27.7265625 C-25.23052041 29.32630818 -26.83191141 30.92627731 -28.43309021 32.52645874 C-32.61799119 36.7075684 -36.80588804 40.88566442 -40.9944458 45.06311035 C-45.28003467 49.33841178 -49.56274218 53.61659748 -53.84570312 57.89453125 C-62.22767336 66.26582397 -70.61281581 74.63393137 -79 83 C-79.66 82.34 -80.32 81.68 -81 81 C-54.27 54.27 -27.54 27.54 0 0 Z " fill="#03A9E8" transform="translate(404,346)"/>
<path d="M0 0 C0.66 0 1.32 0 2 0 C2.46627778 5.71190278 1.57882239 9.56115052 -2 14 C-7.62757175 19.67977557 -13.9391375 24.59727454 -20.1484375 29.6171875 C-23.71924283 32.60101113 -27.11584995 35.74647952 -30.52124023 38.91577148 C-33.73263407 41.8868675 -37.02609763 44.69946588 -40.4375 47.4375 C-44.62237307 50.80346265 -48.58314398 54.33176017 -52.5 58 C-57.26091334 62.45872195 -62.16467563 66.63797624 -67.25390625 70.72265625 C-70.26319052 73.21826469 -73.13938654 75.83765143 -76 78.5 C-80.58090826 82.76300427 -85.31851395 86.74786576 -90.19921875 90.66796875 C-94.34676229 94.12136274 -98.25486134 97.81257696 -102.17578125 101.51953125 C-106.4548142 105.27774138 -110.23846531 108.32217239 -116 109 C-116 108.01 -116 107.02 -116 106 C-114.88625 105.690625 -113.7725 105.38125 -112.625 105.0625 C-106.6276191 102.82672726 -102.55268197 98.34839496 -98 94 C-96.67416049 92.82482407 -95.34134283 91.65744905 -94 90.5 C-91.00340577 87.89452751 -88.06010394 85.2370106 -85.125 82.5625 C-81.85443035 79.60650422 -78.52814781 76.78668592 -75.0625 74.0625 C-70.37551486 70.36883196 -65.98013088 66.41431046 -61.58984375 62.375 C-58.77209233 59.7909987 -55.90277208 57.2752463 -53.015625 54.76953125 C-50.71392236 52.74885044 -48.45235621 50.68687382 -46.1875 48.625 C-42.74621795 45.51471149 -39.23678702 42.53521688 -35.625 39.625 C-31.16223518 36.01347784 -26.9040257 32.22606967 -22.71166992 28.30834961 C-19.94744016 25.73916827 -17.13846245 23.25446756 -14.234375 20.84375 C-13.60249268 20.31692627 -12.97061035 19.79010254 -12.31958008 19.24731445 C-11.09747313 18.23446697 -9.868471 17.22986129 -8.6315918 16.23510742 C-3.18165374 11.70668298 -0.84682367 7.11331881 0 0 Z " fill="#0788CC" transform="translate(283,218)"/>
<path d="M0 0 C0.66 0.33 1.32 0.66 2 1 C1.67 1.66 1.34 2.32 1 3 C-1.5625 3.625 -1.5625 3.625 -4 4 C-4.33 3.34 -4.66 2.68 -5 2 C-2.625 0.9375 -2.625 0.9375 0 0 Z M-5 3 C-6.39636521 6.15227151 -8.03170975 8.27940382 -10.46743774 10.70794678 C-11.18539017 11.42864853 -11.90334259 12.14935028 -12.64305115 12.89189148 C-13.43067337 13.67232315 -14.21829559 14.45275482 -15.02978516 15.25683594 C-16.27380348 16.50129234 -16.27380348 16.50129234 -17.54295349 17.77088928 C-20.28694281 20.51348464 -23.03794973 23.2489268 -25.7890625 25.984375 C-27.69291568 27.88338767 -29.59526595 29.7839031 -31.49765015 31.68438721 C-35.99495491 36.17547851 -40.49733311 40.66144767 -45.00155866 45.14559674 C-50.13000044 50.25167538 -55.25275698 55.36344159 -60.37504506 60.47569227 C-70.91038522 70.99013346 -81.45283982 81.49741465 -92 92 C-92.66 91.34 -93.32 90.68 -94 90 C-82.6972156 78.65054997 -71.38875439 67.30679228 -60.07345009 55.96982574 C-54.82000797 50.70605934 -49.56845976 45.44042884 -44.32128906 40.17041016 C-39.74927362 35.57849606 -35.17378489 30.99007684 -30.59404409 26.4058671 C-28.16794377 23.97715341 -25.74365083 21.54669412 -23.3235054 19.11204529 C-20.62554426 16.39804653 -17.91983698 13.69185503 -15.21337891 10.98632812 C-14.40705521 10.17281387 -13.60073151 9.35929962 -12.76997375 8.52113342 C-12.03519302 7.78910202 -11.30041229 7.05707062 -10.54336548 6.30285645 C-9.90364115 5.66128853 -9.26391682 5.01972061 -8.6048069 4.35871124 C-7 3 -7 3 -5 3 Z " fill="#B187BF" transform="translate(499,255)"/>
<path d="M0 0 C0.99 0.495 0.99 0.495 2 1 C-3.85648132 6.87976574 -9.71574388 12.7567404 -15.57846832 18.63028049 C-18.3013787 21.35838474 -21.0233614 24.08740073 -23.74316406 26.81860352 C-26.37340927 29.45980293 -29.00616925 32.09847235 -31.64060974 34.73548698 C-32.63968295 35.73639205 -33.63788345 36.7381691 -34.63514709 37.74087715 C-39.63100198 42.76289086 -44.66011122 47.65074491 -50.03674316 52.2625885 C-53.88660516 55.66957753 -57.47176967 59.35044744 -61.09375 62.99609375 C-62.34194519 64.24641136 -62.34194519 64.24641136 -63.61535645 65.52198792 C-66.24594935 68.15813262 -68.87302441 70.79775105 -71.5 73.4375 C-73.29403855 75.23655979 -75.08830715 77.0353902 -76.8828125 78.83398438 C-81.25787125 83.22000812 -85.63005512 87.60888142 -90 92 C-90.99 91.67 -91.98 91.34 -93 91 C-88.73490138 86.71000632 -84.46639432 82.42344263 -80.19482422 78.13989258 C-78.74501083 76.68507983 -77.29609983 75.22936717 -75.84814453 73.77270508 C-73.75535357 71.66765449 -71.65923626 69.56596381 -69.5625 67.46484375 C-68.60730469 66.50190651 -68.60730469 66.50190651 -67.6328125 65.51951599 C-64.5322471 62.41857289 -61.38714221 59.429329 -58.06445312 56.56665039 C-53.63359459 52.73808319 -49.52221833 48.63069184 -45.40625 44.46875 C-44.61528931 43.67400269 -43.82432861 42.87925537 -43.00939941 42.0604248 C-40.50380477 39.54271568 -38.00149142 37.02178554 -35.5 34.5 C-32.2008832 31.17411811 -28.89835626 27.85167664 -25.59375 24.53125 C-24.85080688 23.78000854 -24.10786377 23.02876709 -23.34240723 22.25476074 C-19.26794092 18.1614535 -15.10437506 14.24672454 -10.71643066 10.49034119 C-8.3691007 8.4522032 -6.18037817 6.27694658 -4 4.0625 C-2.8553125 2.90427734 -2.8553125 2.90427734 -1.6875 1.72265625 C-1.130625 1.15417969 -0.57375 0.58570313 0 0 Z " fill="#77D0CF" transform="translate(246,453)"/>
<path d="M0 0 C3.9610941 1.3203647 4.36517686 2.86460686 6.4140625 6.45703125 C6.740578 7.02260742 7.06709351 7.58818359 7.40350342 8.17089844 C8.11210561 9.40010207 8.81669785 10.63162397 9.51776123 11.86514282 C11.41509559 15.20208132 13.3425456 18.52160516 15.265625 21.84375 C15.66063202 22.52798538 16.05563904 23.21222076 16.46261597 23.91719055 C20.33395558 30.61078289 24.34034115 37.21617567 28.375 43.8125 C32.98198388 51.35282004 37.55498729 58.90994232 42.046875 66.51953125 C42.47114777 67.23766495 42.89542053 67.95579865 43.33255005 68.69569397 C45.39182877 72.18296819 47.44626378 75.67296878 49.49365234 79.16723633 C57.14582064 93.53486649 57.14582064 93.53486649 69 104 C68.67 104.66 68.34 105.32 68 106 C60.61088143 104.04405685 56.96258672 97.13315457 53.29296875 90.95703125 C52.27742702 89.20060285 51.26216482 87.4439917 50.25592041 85.68222046 C48.39603791 82.42745265 46.51104992 79.18724094 44.62890625 75.9453125 C44.24317444 75.27962753 43.85744263 74.61394257 43.46002197 73.92808533 C39.60650369 67.29128569 35.62710409 60.7356696 31.625 54.1875 C24.39470283 42.34567988 17.29238202 30.43138257 10.24267578 18.48120117 C9.85550888 17.82628189 9.46834198 17.17136261 9.06944275 16.49659729 C8.02116159 14.72326511 6.97474524 12.94883094 5.9284668 11.17431641 C4.59694643 8.98259242 3.200166 6.82966808 1.75317383 4.71240234 C0 2 0 2 0 0 Z " fill="#6DCED5" transform="translate(68,443)"/>
<path d="M0 0 C2.46800047 1.15173355 4.04783565 2.04783565 6 4 C6.24888897 5.83563995 6.24888897 5.83563995 6.24723816 8.10559082 C6.25143265 8.96581345 6.25562714 9.82603607 6.25994873 10.71232605 C6.25151947 12.13186333 6.25151947 12.13186333 6.24291992 13.58007812 C6.24481827 14.57558182 6.24671661 15.57108551 6.24867249 16.59675598 C6.25239423 19.90833268 6.24164458 23.21969254 6.23046875 26.53125 C6.22927614 28.8393959 6.22882396 31.14754229 6.2290802 33.45568848 C6.2275122 38.31147268 6.21920734 43.1671835 6.20581055 48.02294922 C6.18897191 54.20010649 6.18499186 60.37718191 6.18575573 66.55435944 C6.18548131 71.33323934 6.17995445 76.11210189 6.17275429 80.89097595 C6.16960279 83.1647885 6.16760858 85.43860299 6.16686058 87.7124176 C6.15782594 100.84377264 5.90816415 113.89806053 5 127 C4.67 127 4.34 127 4 127 C3.67 86.08 3.34 45.16 3 3 C1.68 2.34 0.36 1.68 -1 1 C-0.67 0.67 -0.34 0.34 0 0 Z " fill="#FA8F23" transform="translate(602,2)"/>
<path d="M0 0 C0.33 0 0.66 0 1 0 C1 29.7 1 59.4 1 90 C0.34 90 -0.32 90 -1 90 C-2.24254424 77.67362149 -2.1523156 65.34620685 -2.13037109 52.97119141 C-2.1250432 49.40392748 -2.13032493 45.83679119 -2.13671875 42.26953125 C-2.14022254 31.64180759 -2.06247579 21.03115538 -1.5546875 10.4140625 C-1.51594513 9.58224457 -1.47720276 8.75042664 -1.43728638 7.8934021 C-1.12831839 2.25663678 -1.12831839 2.25663678 0 0 Z " fill="#E3699C" transform="translate(607,290)"/>
<path d="M0 0 C0.66 0 1.32 0 2 0 C0.64120339 5.762627 -2.14905686 8.69494828 -6.2578125 12.68359375 C-6.87969452 13.30218765 -7.50157654 13.92078156 -8.14230347 14.55812073 C-10.12734181 16.52746689 -12.12609125 18.48224503 -14.125 20.4375 C-15.44617677 21.74717559 -16.76649813 23.0577147 -18.0859375 24.36914062 C-28.36186583 34.54679923 -28.36186583 34.54679923 -32.9921875 38.4765625 C-39.71247621 44.1996061 -45.78337249 50.68077986 -52 56.9375 C-53.36044318 58.30296745 -54.72111831 59.66820386 -56.08203125 61.03320312 C-59.3907031 64.35280886 -62.69621322 67.67553273 -66 71 C-66.99 70.67 -67.98 70.34 -69 70 C-65.7318517 66.70687173 -62.46023304 63.41724235 -59.18554688 60.13061523 C-58.07524416 59.0153271 -56.96584571 57.89913789 -55.85742188 56.78198242 C-54.2511523 55.16339038 -52.64150558 53.54821928 -51.03125 51.93359375 C-50.30572937 51.20033119 -50.30572937 51.20033119 -49.56555176 50.45225525 C-46.84785813 47.73413388 -44.05583217 45.1537055 -41.14599609 42.64160156 C-36.7946242 38.86968355 -32.70674324 34.86839799 -28.6328125 30.80078125 C-27.87201385 30.043311 -27.11121521 29.28584076 -26.32736206 28.50541687 C-24.73451585 26.91759699 -23.14298853 25.32845301 -21.55273438 23.73803711 C-19.11608228 21.30359035 -16.67151662 18.87727723 -14.2265625 16.45117188 C-12.67399059 14.90153101 -11.12189031 13.35141745 -9.5703125 11.80078125 C-8.4750676 10.71631462 -8.4750676 10.71631462 -7.35769653 9.60993958 C-6.68294281 8.93210922 -6.00818909 8.25427887 -5.31298828 7.5559082 C-4.7197879 6.96413284 -4.12658752 6.37235748 -3.51541138 5.76264954 C-1.94834358 3.93991587 -0.97591023 2.18797624 0 0 Z " fill="#F3E820" transform="translate(467,234)"/>
<path d="M0 0 C0.99 0.33 1.98 0.66 3 1 C2.05640625 1.81082031 1.1128125 2.62164062 0.140625 3.45703125 C-6.2345102 8.94907054 -12.58939651 14.46065424 -18.8125 20.125 C-19.76769531 20.99382812 -20.72289062 21.86265625 -21.70703125 22.7578125 C-24.13315825 24.97539751 -24.13315825 24.97539751 -26 28 C-26.66 28 -27.32 28 -28 28 C-25.72290761 19.65066124 -17.1374557 14.36193152 -10.72265625 9.2265625 C-7.57400803 6.6516278 -4.59942565 3.92318124 -1.65625 1.1171875 C-0.83640625 0.56417969 -0.83640625 0.56417969 0 0 Z M-29 28 C-28.34 28.33 -27.68 28.66 -27 29 C-26.43776016 40.24479678 -28.70374153 51.90745092 -36.234375 60.5703125 C-40.73201346 65.24513066 -44.99629444 69.42698333 -51 72 C-51.99 71.67 -52.98 71.34 -54 71 C-51.29808702 68.91549247 -48.53320189 67.09313589 -45.625 65.3125 C-37.91035437 60.15673518 -33.40724045 52.91141898 -31 44 C-30.0521491 38.70182258 -29.50499884 33.35564556 -29 28 Z M-57 71 C-56.01 71 -55.02 71 -54 71 C-54 71.66 -54 72.32 -54 73 C-54.99 72.67 -55.98 72.34 -57 72 C-57 71.67 -57 71.34 -57 71 Z " fill="#AFD99E" transform="translate(217,327)"/>
<path d="M0 0 C0 3 0 3 -2.23828125 5.3828125 C-3.2547666 6.30604541 -4.28016307 7.21952668 -5.3125 8.125 C-5.85575928 8.61218506 -6.39901855 9.09937012 -6.95874023 9.60131836 C-11.29084061 13.45549795 -15.76845443 17.1185121 -20.28515625 20.75390625 C-23.10673495 23.0883059 -25.80590712 25.51990598 -28.5 28 C-32.9698512 32.11378909 -37.59044893 35.97087297 -42.31640625 39.78515625 C-44.94708557 41.95632827 -47.47942424 44.20241357 -50 46.5 C-56.0313448 51.9909363 -62.20503739 57.47002493 -69 62 C-69 61.01 -69 60.02 -69 59 C-67.02659729 57.08437025 -65.06321749 55.35748222 -62.9375 53.625 C-61.64401586 52.54488773 -60.35106457 51.4641371 -59.05859375 50.3828125 C-58.38683105 49.8249707 -57.71506836 49.26712891 -57.02294922 48.69238281 C-53.81075117 46.00508413 -50.65704911 43.25165154 -47.5 40.5 C-40.93829554 34.8026152 -34.34598506 29.14173884 -27.74267578 23.49267578 C-25.97105665 21.97520879 -24.20199221 20.4548123 -22.43359375 18.93359375 C-15.01220817 12.55284526 -7.5392278 6.2412655 0 0 Z " fill="#FDF308" transform="translate(474,106)"/>
<path d="M0 0 C0 3 0 3 -2.23828125 5.3828125 C-3.2547666 6.30604541 -4.28016307 7.21952668 -5.3125 8.125 C-5.85575928 8.61218506 -6.39901855 9.09937012 -6.95874023 9.60131836 C-11.29084061 13.45549795 -15.76845443 17.1185121 -20.28515625 20.75390625 C-23.10673495 23.0883059 -25.80590712 25.51990598 -28.5 28 C-32.9698512 32.11378909 -37.59044893 35.97087297 -42.31640625 39.78515625 C-44.94708557 41.95632827 -47.47942424 44.20241357 -50 46.5 C-56.0313448 51.9909363 -62.20503739 57.47002493 -69 62 C-69 61.01 -69 60.02 -69 59 C-67.00578795 57.06337158 -65.02226957 55.31510272 -62.875 53.5625 C-61.57924968 52.47937886 -60.28368166 51.39603961 -58.98828125 50.3125 C-57.98982178 49.48492187 -57.98982178 49.48492187 -56.97119141 48.640625 C-53.9742912 46.14630132 -51.01864833 43.60485519 -48.0625 41.0625 C-47.48870605 40.57080322 -46.91491211 40.07910645 -46.32373047 39.57250977 C-42.03552252 35.89732849 -37.76536935 32.20164475 -33.5 28.5 C-22.42340132 18.89034869 -11.29604413 9.35130393 0 0 Z " fill="#F7F224" transform="translate(395,174)"/>
<path d="M0 0 C0.66 0.33 1.32 0.66 2 1 C2 13.9890909 -10.19288851 23.64668125 -18.56103516 32.46826172 C-20.88732454 34.94453243 -23.10840006 37.50676047 -25.328125 40.078125 C-28.10698326 43.27251347 -30.95901093 46.40104782 -33.796875 49.54296875 C-35.80370265 51.78107973 -37.78176809 54.04047577 -39.75 56.3125 C-42.38615903 59.34193217 -45.11743212 62.20478266 -48 65 C-47.47403544 60.83124387 -45.19493533 58.73180473 -42.375 55.75 C-41.45643238 54.76748663 -40.53846598 53.78441085 -39.62109375 52.80078125 C-38.75613281 51.87652344 -37.89117187 50.95226562 -37 50 C-35.80479283 48.65263093 -34.6162436 47.29929555 -33.4375 45.9375 C-30.82298058 42.92926472 -28.17048344 39.95869751 -25.5 37 C-21.62547143 32.70077605 -17.77737541 28.38487084 -14 24 C-13.15824219 23.03707031 -12.31648438 22.07414062 -11.44921875 21.08203125 C-10.54879743 20.03443975 -9.64905628 18.98626324 -8.75 17.9375 C-7.91984375 16.97714844 -7.0896875 16.01679688 -6.234375 15.02734375 C-2.83329751 10.41924051 -0.8643189 5.70450475 0 0 Z " fill="#16A2DE" transform="translate(474,410)"/>
<path d="M0 0 C0.33 0 0.66 0 1 0 C1 7.59 1 15.18 1 23 C1.66 23 2.32 23 3 23 C2.34 25.64 1.68 28.28 1 31 C1.66 31 2.32 31 3 31 C3 47.83 3 64.66 3 82 C2.01 82.495 2.01 82.495 1 83 C0.04736387 55.32794725 -0.12085454 27.68684656 0 0 Z " fill="#2E3294" transform="translate(0,191)"/>
<path d="M0 0 C0.66 0.33 1.32 0.66 2 1 C-3.86981626 7.63783927 -9.90576729 14.04476396 -16.19140625 20.2890625 C-17.02212143 21.11836273 -17.85283661 21.94766296 -18.70872498 22.80209351 C-21.32428084 25.41211764 -23.94331779 28.01861549 -26.5625 30.625 C-28.3524465 32.40992266 -30.1421621 34.19507691 -31.93164062 35.98046875 C-36.28509905 40.32298891 -40.64140962 44.66263113 -45 49 C-45.99 48.67 -46.98 48.34 -48 48 C-32.16 32.16 -16.32 16.32 0 0 Z " fill="#569ED9" transform="translate(404,346)"/>
<path d="M0 0 C0 0.66 0 1.32 0 2 C-1.29296875 3.234375 -1.29296875 3.234375 -3.1875 4.75 C-12.35501753 12.55214258 -20.23786073 21.87858254 -27.73046875 31.26171875 C-30.79642999 34.960925 -34.05702961 38.46483086 -37.37158203 41.94189453 C-41.2478217 46.06612337 -43 48.28269741 -43 54 C-43.66 54 -44.32 54 -45 54 C-45.61617748 49.89215012 -45.02003286 47.57539589 -42.625 44.3125 C-39.12792538 39.98435588 -35.32793808 35.92269258 -31.5546875 31.8359375 C-29.20461074 29.2271367 -26.99825244 26.55912477 -24.8125 23.8125 C-20.78656406 18.8252544 -16.50156054 14.1190983 -12.125 9.4375 C-11.46991455 8.73407471 -10.8148291 8.03064941 -10.13989258 7.3059082 C-9.51880615 6.64679443 -8.89771973 5.98768066 -8.2578125 5.30859375 C-7.7023877 4.71876709 -7.14696289 4.12894043 -6.57470703 3.52124023 C-2.92970631 0 -2.92970631 0 0 0 Z " fill="#F10890" transform="translate(502,433)"/>
<path d="M0 0 C0.66 0.33 1.32 0.66 2 1 C1.67 1.66 1.34 2.32 1 3 C-1.5625 3.625 -1.5625 3.625 -4 4 C-4.33 3.34 -4.66 2.68 -5 2 C-2.625 0.9375 -2.625 0.9375 0 0 Z M-5 3 C-6.39080525 6.13738154 -8.01022204 8.25475281 -10.43994141 10.66699219 C-11.14051666 11.36741638 -11.84109192 12.06784058 -12.56289673 12.78948975 C-13.69578629 13.90689545 -13.69578629 13.90689545 -14.8515625 15.046875 C-15.62559418 15.81807678 -16.39962585 16.58927856 -17.19711304 17.3838501 C-19.66841923 19.84396856 -22.14659183 22.29703848 -24.625 24.75 C-26.30254052 26.41750894 -27.97962945 28.08547232 -29.65625 29.75390625 C-33.76560919 33.8412237 -37.88062647 37.92277696 -42 42 C-42.66 41.34 -43.32 40.68 -44 40 C-38.77422903 34.72367591 -33.54075621 29.45508483 -28.30175781 24.19189453 C-26.51903197 22.39908761 -24.7381021 20.60449301 -22.95898438 18.80810547 C-20.40700562 16.23197101 -17.84871697 13.66225508 -15.2890625 11.09375 C-14.49005524 10.28442017 -13.69104797 9.47509033 -12.86782837 8.64123535 C-11.75690323 7.53008362 -11.75690323 7.53008362 -10.62353516 6.39648438 C-9.97067535 5.73918335 -9.31781555 5.08188232 -8.64517212 4.40466309 C-7 3 -7 3 -5 3 Z " fill="#C57FB6" transform="translate(499,255)"/>
<path d="M0 0 C0.99 0.33 1.98 0.66 3 1 C1.0409142 2.48019816 -0.92223741 3.94521988 -2.9296875 5.359375 C-12.34794335 12.09210408 -18.52794779 20.46907257 -21 32 C-21.1192883 33.4779334 -21.1991841 34.95940884 -21.24609375 36.44140625 C-21.27896484 37.27220703 -21.31183594 38.10300781 -21.34570312 38.95898438 C-21.40703392 40.69842999 -21.4643084 42.43802324 -21.51757812 44.17773438 C-21.55173828 45.00724609 -21.58589844 45.83675781 -21.62109375 46.69140625 C-21.6461499 47.44623291 -21.67120605 48.20105957 -21.69702148 48.97875977 C-22 51 -22 51 -24 54 C-25.42030637 49.73908089 -24.96308915 45.82404308 -24.75 41.375 C-24.72292969 40.51003906 -24.69585937 39.64507812 -24.66796875 38.75390625 C-24.12631693 27.09965589 -19.87205089 17.10331317 -11.71875 8.62890625 C-8.06544244 5.31048522 -4.42747211 2.23522864 0 0 Z " fill="#FCF10D" transform="translate(493,180)"/>
<path d="M0 0 C0.99 0.33 1.98 0.66 3 1 C-3.88656252 7.47052218 -10.81770106 13.74737491 -18.1953125 19.66015625 C-21.36966268 22.30839547 -24.36758621 25.10348745 -27.375 27.9375 C-31.76942872 32.05102736 -36.26104548 35.97411985 -41 39.6875 C-42.546875 40.89986328 -42.546875 40.89986328 -44.125 42.13671875 C-46.89910575 43.93461065 -48.74870447 44.64737787 -52 45 C-52 44.01 -52 43.02 -52 42 C-50.88625 41.690625 -49.7725 41.38125 -48.625 41.0625 C-42.6276191 38.82672726 -38.55268197 34.34839496 -34 30 C-32.67416049 28.82482407 -31.34134283 27.65744905 -30 26.5 C-27.00340577 23.89452751 -24.06010394 21.2370106 -21.125 18.5625 C-17.75659328 15.51538746 -14.31955183 12.62097621 -10.75 9.8125 C-6.87390462 6.76175616 -3.39582062 3.57454802 0 0 Z " fill="#0C98D8" transform="translate(219,282)"/>
<path d="M0 0 C0.495 1.485 0.495 1.485 1 3 C0.28714844 3.7734375 -0.42570312 4.546875 -1.16015625 5.34375 C-5.9186522 10.51530405 -10.65313899 15.69811721 -15.2578125 21.0078125 C-17.31500399 23.36020635 -19.40596915 25.68034966 -21.5 28 C-28.55666477 35.83146749 -35.36045757 43.80972544 -42 52 C-42.495 50.515 -42.495 50.515 -43 49 C-41.8828125 47.30859375 -41.8828125 47.30859375 -40.125 45.4375 C-39.47789062 44.73496094 -38.83078125 44.03242187 -38.1640625 43.30859375 C-37.44992187 42.54675781 -36.73578125 41.78492188 -36 41 C-34.49694309 39.33608963 -32.99701329 37.66934987 -31.5 36 C-30.3553125 34.7315625 -30.3553125 34.7315625 -29.1875 33.4375 C-27.27445851 31.30582519 -25.38112388 29.1598089 -23.5 27 C-20.86310364 23.97245233 -18.18983431 20.98062721 -15.5 18 C-7.5371264 9.18116564 -7.5371264 9.18116564 0 0 Z " fill="#03A7E4" transform="translate(425,473)"/>
<path d="M0 0 C0.66 0.33 1.32 0.66 2 1 C-12.52 15.52 -27.04 30.04 -42 45 C-42.99 44.67 -43.98 44.34 -45 44 C-40.73490138 39.71000632 -36.46639432 35.42344263 -32.19482422 31.13989258 C-30.74501083 29.68507983 -29.29609983 28.22936717 -27.84814453 26.77270508 C-25.75535357 24.66765449 -23.65923626 22.56596381 -21.5625 20.46484375 C-20.92570312 19.82288559 -20.28890625 19.18092743 -19.6328125 18.51951599 C-15.82869913 14.71493921 -11.91332288 11.10357624 -7.82592773 7.60450745 C-5.083778 5.19488324 -2.54855462 2.61226848 0 0 Z " fill="#ACDAA5" transform="translate(293,407)"/>
<path d="M0 0 C0 3 0 3 -2.23828125 5.3828125 C-3.25475889 6.3060539 -4.2801535 7.21953759 -5.3125 8.125 C-5.85503418 8.61145996 -6.39756836 9.09791992 -6.95654297 9.59912109 C-11.31127334 13.47294547 -15.80756239 17.16218436 -20.34765625 20.81640625 C-22.99267637 22.99397068 -25.53212525 25.25318763 -28.0625 27.5625 C-32.86435943 31.94043926 -37.87981739 36.00189996 -43 40 C-43 37 -43 37 -40.98046875 34.8359375 C-39.59794922 33.61777344 -39.59794922 33.61777344 -38.1875 32.375 C-37.69121094 31.93478516 -37.19492187 31.49457031 -36.68359375 31.04101562 C-32.47230005 27.33486447 -28.12005736 23.80664655 -23.75390625 20.28515625 C-20.89917867 17.91633975 -18.1656079 15.45073583 -15.4375 12.9375 C-10.47942283 8.37235402 -5.32166338 4.13265833 0 0 Z " fill="#E0E966" transform="translate(323,236)"/>
<path d="M0 0 C0 3 0 3 -1.26586914 4.40698242 C-1.84973389 4.88498291 -2.43359863 5.3629834 -3.03515625 5.85546875 C-3.67694824 6.39187988 -4.31874023 6.92829102 -4.97998047 7.48095703 C-5.66721191 8.04411621 -6.35444336 8.60727539 -7.0625 9.1875 C-16.74626524 16.78413647 -16.74626524 16.78413647 -23 27 C-23.26682486 30.1256626 -23.44459148 33.250836 -23.62109375 36.3828125 C-23.74613281 37.24648438 -23.87117188 38.11015625 -24 39 C-24.99 39.495 -24.99 39.495 -26 40 C-27.45040069 31.69315971 -26.50736028 25.60941596 -21.9375 18.4375 C-18.38008343 13.81179016 -13.62203826 10.49038878 -9 7 C-7.29023569 5.66850213 -5.58180352 4.33529109 -3.875 3 C-2.58389161 1.99927931 -1.29244623 0.99899225 0 0 Z " fill="#14B6E3" transform="translate(35,305)"/>
<path d="M0 0 C0 3 0 3 -1.21826172 4.40698242 C-1.78303223 4.88498291 -2.34780273 5.3629834 -2.9296875 5.85546875 C-3.55520508 6.39139648 -4.18072266 6.92732422 -4.82519531 7.47949219 C-5.50163086 8.04313477 -6.17806641 8.60677734 -6.875 9.1875 C-7.56174805 9.77047852 -8.24849609 10.35345703 -8.95605469 10.95410156 C-13.44012182 14.74443116 -17.97896975 18.46345621 -22.59375 22.09375 C-25.34551914 24.27372295 -28.04595412 26.51116632 -30.75 28.75 C-34.38623958 31.73635847 -38.00505547 34.5166561 -42 37 C-42 36.01 -42 35.02 -42 34 C-39.99896688 32.22704817 -38.01898467 30.64571557 -35.875 29.0625 C-34.57862022 28.0769868 -33.2844089 27.08861572 -31.9921875 26.09765625 C-30.99396973 25.33219482 -30.99396973 25.33219482 -29.97558594 24.55126953 C-26.89665751 22.13363344 -23.94932552 19.57289624 -21 17 C-14.19114444 11.08342616 -7.13876562 5.51138744 0 0 Z " fill="#0BAEE3" transform="translate(80,268)"/>
<path d="M0 0 C0.33 0 0.66 0 1 0 C3.77833578 11.88133836 2.51625764 23.1337082 -3.54296875 33.6875 C-7.23086662 39.35859237 -11.30796999 43.36301459 -17 47 C-17.66 46.34 -18.32 45.68 -19 45 C-18.41992188 44.59910156 -17.83984375 44.19820312 -17.2421875 43.78515625 C-9.39925791 38.07767779 -4.03999913 31.57674101 -1.453125 22.1015625 C-0.60869992 16.32161845 -0.84481659 10.50969845 -0.9921875 4.68359375 C-0.99605469 2.86021484 -0.99605469 2.86021484 -1 1 C-0.67 0.67 -0.34 0.34 0 0 Z " fill="#F3917F" transform="translate(547,205)"/>
<path d="M0 0 C0.66 0.33 1.32 0.66 2 1 C-8.89 11.89 -19.78 22.78 -31 34 C-31.99 33.67 -32.98 33.34 -34 33 C-29.48282783 28.45752653 -24.96178203 23.91893575 -20.43798828 19.38305664 C-18.89867553 17.83870708 -17.3602604 16.29346229 -15.82275391 14.74731445 C-13.61594799 12.5284145 -11.40596143 10.31272667 -9.1953125 8.09765625 C-8.50567413 7.4028566 -7.81603577 6.70805695 -7.10549927 5.99220276 C-6.46498627 5.35161423 -5.82447327 4.7110257 -5.16455078 4.05102539 C-4.60051544 3.48476944 -4.0364801 2.91851349 -3.45535278 2.33509827 C-2 1 -2 1 0 0 Z " fill="#CAE284" transform="translate(329,372)"/>
<path d="M0 0 C-2.54992339 1.53548732 -5.10308423 3.05926968 -7.68359375 4.54296875 C-17.60543748 10.46792791 -22.50270814 17.00594917 -26 28 C-26.35913685 29.66129757 -26.69987646 31.32703415 -27 33 C-27.66 32.34 -28.32 31.68 -29 31 C-28.82297956 22.50301893 -24.58803586 15.33161882 -18.875 9.25 C-14.1963905 4.83829105 -6.67372754 -2.22457585 0 0 Z " fill="#13B3E4" transform="translate(140,325)"/>
<path d="M0 0 C2 2 2 2 2.22705078 5.16455078 C2.22673389 6.50817963 2.21542181 7.8518341 2.1953125 9.1953125 C2.1924826 9.90275604 2.18965271 10.61019958 2.18673706 11.33908081 C2.17553137 13.6012251 2.15042679 15.86297515 2.125 18.125 C2.11497067 19.65754637 2.10584474 21.19009894 2.09765625 22.72265625 C2.07559086 26.48192301 2.04105896 30.24089464 2 34 C1.34 34 0.68 34 0 34 C-0.71368464 26.07300272 -1.10577771 18.20642518 -1.125 10.25 C-1.12951172 9.46383301 -1.13402344 8.67766602 -1.13867188 7.86767578 C-1.1238859 2.24777179 -1.1238859 2.24777179 0 0 Z " fill="#E8638E" transform="translate(606,346)"/>
<path d="M0 0 C0 3 0 3 -2.23828125 5.3828125 C-3.25474347 6.30607087 -4.28013436 7.21955941 -5.3125 8.125 C-5.85358398 8.61000977 -6.39466797 9.09501953 -6.95214844 9.59472656 C-11.34244616 13.49920217 -15.86608551 17.23247817 -20.44140625 20.91796875 C-24.04526763 23.85057656 -27.53159795 26.90924631 -31 30 C-31.66 29.34 -32.32 28.68 -33 28 C-32.16339844 27.28457031 -31.32679688 26.56914063 -30.46484375 25.83203125 C-29.2889711 24.82562762 -28.11319793 23.81910774 -26.9375 22.8125 C-26.31568848 22.28019775 -25.69387695 21.74789551 -25.05322266 21.19946289 C-21.64936387 18.28217318 -18.25364639 15.35604066 -14.87109375 12.4140625 C-14.20279541 11.83293701 -13.53449707 11.25181152 -12.84594727 10.65307617 C-11.55503677 9.52942597 -10.2651217 8.4046309 -8.97631836 7.27856445 C-6.05769492 4.73830313 -3.14511378 2.26103951 0 0 Z " fill="#F6B622" transform="translate(517,69)"/>
<path d="M0 0 C0 3 0 3 -2.23828125 5.3828125 C-3.25474347 6.30607087 -4.28013436 7.21955941 -5.3125 8.125 C-5.85358398 8.61000977 -6.39466797 9.09501953 -6.95214844 9.59472656 C-11.34244616 13.49920217 -15.86608551 17.23247817 -20.44140625 20.91796875 C-24.04526763 23.85057656 -27.53159795 26.90924631 -31 30 C-31.66 29.34 -32.32 28.68 -33 28 C-32.16339844 27.28457031 -31.32679688 26.56914063 -30.46484375 25.83203125 C-29.2889711 24.82562762 -28.11319793 23.81910774 -26.9375 22.8125 C-26.31568848 22.28019775 -25.69387695 21.74789551 -25.05322266 21.19946289 C-21.64936387 18.28217318 -18.25364639 15.35604066 -14.87109375 12.4140625 C-14.20279541 11.83293701 -13.53449707 11.25181152 -12.84594727 10.65307617 C-11.55503677 9.52942597 -10.2651217 8.4046309 -8.97631836 7.27856445 C-6.05769492 4.73830313 -3.14511378 2.26103951 0 0 Z " fill="#F79324" transform="translate(553,38)"/>
<path d="M0 0 C0.66 0 1.32 0 2 0 C2.21914062 0.556875 2.43828125 1.11375 2.6640625 1.6875 C7.19254222 12.58530486 13.70394781 20.46927403 24.80859375 25.1953125 C25.53175781 25.46085937 26.25492188 25.72640625 27 26 C27 26.66 27 27.32 27 28 C18.62433655 26.70341153 11.81175687 21.70732065 6.5390625 15.22265625 C3.3845983 10.66709755 0 5.64852294 0 0 Z " fill="#57C2D7" transform="translate(112,372)"/>
<path d="M0 0 C0.33 0.99 0.66 1.98 1 3 C-4.9513515 8.46078456 -11.0259138 13.70098866 -17.3046875 18.78125 C-21.30498692 22.0742501 -25.16109003 25.52128406 -29 29 C-29.66 28.34 -30.32 27.68 -31 27 C-22.82257459 19.8991544 -14.63721277 12.80871589 -6.39404297 5.78417969 C-4.19839917 3.90882793 -2.04271822 2.04271822 0 0 Z " fill="#F3EF38" transform="translate(356,207)"/>
<path d="M0 0 C0.66 0 1.32 0 2 0 C2.54527344 0.98097656 3.09054688 1.96195312 3.65234375 2.97265625 C8.92671803 12.42478776 14.37846986 21.75039012 20 31 C19.34 31.66 18.68 32.32 18 33 C15.42807023 28.78755297 12.86484231 24.5699846 10.30957031 20.34741211 C9.43890343 18.91139609 8.56586717 17.47681388 7.69042969 16.04370117 C6.43320513 13.98467525 5.18456439 11.92065982 3.9375 9.85546875 C3.54377197 9.21473923 3.15004395 8.5740097 2.74438477 7.91386414 C0 3.34161512 0 3.34161512 0 0 Z " fill="#1CBAE6" transform="translate(10,345)"/>
<path d="M0 0 C-1.31270914 2.90221328 -2.71898982 4.96712292 -4.9765625 7.20703125 C-5.56131348 7.79049316 -6.14606445 8.37395508 -6.74853516 8.97509766 C-7.36776855 9.58144043 -7.98700195 10.1877832 -8.625 10.8125 C-9.25583496 11.43688965 -9.88666992 12.0612793 -10.53662109 12.70458984 C-14.39243127 16.49701141 -18.31845035 20.16987745 -22.4453125 23.66796875 C-24.40228667 25.34467275 -26.21594807 27.14161257 -28 29 C-28.66 28.67 -29.32 28.34 -30 28 C-26.05534383 24.00602615 -22.10425446 20.01857403 -18.14697266 16.03710938 C-16.80076671 14.68082557 -15.45635851 13.32275497 -14.11376953 11.96289062 C-12.18728284 10.01223399 -10.25449117 8.06802606 -8.3203125 6.125 C-7.41709763 5.20630127 -7.41709763 5.20630127 -6.49563599 4.26904297 C-2.22774341 0 -2.22774341 0 0 0 Z " fill="#D8E570" transform="translate(360,343)"/>
<path d="M0 0 C0.66 0.33 1.32 0.66 2 1 C0.52196872 10.71277696 -7.61548697 17.34647149 -15.17578125 22.94140625 C-17.10795513 24.06264634 -18.81676192 24.5710636 -21 25 C-21.33 24.34 -21.66 23.68 -22 23 C-20.93072266 22.48953125 -20.93072266 22.48953125 -19.83984375 21.96875 C-9.54871842 16.76085885 -4.02497942 10.79994478 0 0 Z M-25 24 C-24.01 24 -23.02 24 -22 24 C-22 24.66 -22 25.32 -22 26 C-22.99 25.67 -23.98 25.34 -25 25 C-25 24.67 -25 24.34 -25 24 Z " fill="#9BD7B7" transform="translate(185,374)"/>
<path d="M0 0 C0.66 0.33 1.32 0.66 2 1 C-7.24 10.24 -16.48 19.48 -26 29 C-26.66 28.34 -27.32 27.68 -28 27 C-22.48454547 21.39329714 -16.9807088 15.87592597 -10.9921875 10.76953125 C-7.15451086 7.36077141 -3.59060249 3.66540671 0 0 Z " fill="#92D6BD" transform="translate(246,453)"/>
<path d="M0 0 C0.99 0.33 1.98 0.66 3 1 C2.10638898 13.14078423 0.40596502 24.28624886 -9 33 C-9 29.07845198 -7.33695838 26.38918078 -5.5625 23 C-2.60423225 17.282635 -0.88665549 12.79317207 -0.4375 6.3125 C-0.35371094 5.13300781 -0.26992187 3.95351562 -0.18359375 2.73828125 C-0.12300781 1.83464844 -0.06242188 0.93101562 0 0 Z " fill="#0381C7" transform="translate(179,192)"/>
<path d="M0 0 C4.04156153 1.34718718 5.01569254 3.9173862 7.01171875 7.44140625 C7.38480667 8.08367661 7.75789459 8.72594696 8.14228821 9.38768005 C9.3325401 11.44116756 10.51009646 13.50162391 11.6875 15.5625 C12.49201319 16.95555511 13.29734191 18.34813957 14.10351562 19.74023438 C16.07851687 23.15476602 18.04216223 26.57560052 20 30 C19.01 30 18.02 30 17 30 C15.50597086 28.00501926 14.24560084 26.08403315 12.98828125 23.9453125 C12.61519333 23.32856659 12.24210541 22.71182068 11.85771179 22.0763855 C11.07014386 20.76967936 10.28787417 19.45976759 9.51049805 18.14697266 C8.31761114 16.13362654 7.10863961 14.13069825 5.89648438 12.12890625 C5.13445059 10.85995465 4.37335102 9.59044147 3.61328125 8.3203125 C3.25083817 7.71816925 2.88839508 7.116026 2.51496887 6.49563599 C0 2.2331833 0 2.2331833 0 0 Z " fill="#5DCBDA" transform="translate(68,443)"/>
<path d="M0 0 C3.74497199 1.248324 4.08510216 2.3466654 6.03125 5.69921875 C6.59457031 6.66150391 7.15789063 7.62378906 7.73828125 8.61523438 C8.61033203 10.13600586 8.61033203 10.13600586 9.5 11.6875 C10.08136719 12.68201172 10.66273437 13.67652344 11.26171875 14.70117188 C13.99375439 19.39939792 16.6597181 24.09376615 19 29 C18.34 29.33 17.68 29.66 17 30 C14.57329242 26.05242406 12.15237773 22.10137897 9.73681641 18.14697266 C8.91386547 16.8015957 8.08932621 15.45718897 7.26318359 14.11376953 C6.07753552 12.1851343 4.89760073 10.25310793 3.71875 8.3203125 C3.34689575 7.71816925 2.9750415 7.116026 2.59191895 6.49563599 C0 2.22774341 0 2.22774341 0 0 Z " fill="#2EBEE4" transform="translate(29,378)"/>
<path d="M0 0 C0 3 0 3 -1.23413086 4.42285156 C-1.80526611 4.9072168 -2.37640137 5.39158203 -2.96484375 5.890625 C-3.59640381 6.43243408 -4.22796387 6.97424316 -4.87866211 7.5324707 C-5.55807861 8.09925537 -6.23749512 8.66604004 -6.9375 9.25 C-7.6188501 9.82903076 -8.3002002 10.40806152 -9.00219727 11.00463867 C-13.89468198 15.13997384 -18.86265195 19.17135308 -24 23 C-24.66 22.34 -25.32 21.68 -26 21 C-7.56147721 5.73035025 -7.56147721 5.73035025 0 0 Z " fill="#08A7E0" transform="translate(108,245)"/>
<path d="M0 0 C0.66 0.33 1.32 0.66 2 1 C-4.84785975 8.49672633 -11.73634642 15.90142946 -19 23 C-19.66 22.34 -20.32 21.68 -21 21 C-14.07 14.07 -7.14 7.14 0 0 Z " fill="#9193CB" transform="translate(426,324)"/>
<path d="M0 0 C0.66 0.33 1.32 0.66 2 1 C1.67 1.66 1.34 2.32 1 3 C-1.5625 3.625 -1.5625 3.625 -4 4 C-4.33 3.34 -4.66 2.68 -5 2 C-2.625 0.9375 -2.625 0.9375 0 0 Z M-5 3 C-6.32120828 5.93230193 -7.74638197 7.98664899 -10.0390625 10.234375 C-10.90917969 11.09482422 -10.90917969 11.09482422 -11.796875 11.97265625 C-12.40015625 12.55917969 -13.0034375 13.14570313 -13.625 13.75 C-14.23601562 14.35199219 -14.84703125 14.95398438 -15.4765625 15.57421875 C-16.97988624 17.05405305 -18.48934856 18.52764676 -20 20 C-20.99 19.67 -21.98 19.34 -23 19 C-20.38308836 16.32529045 -17.75518292 13.66165519 -15.125 11 C-14.00544922 9.8553125 -14.00544922 9.8553125 -12.86328125 8.6875 C-12.14785156 7.965625 -11.43242187 7.24375 -10.6953125 6.5 C-10.03547363 5.8296875 -9.37563477 5.159375 -8.69580078 4.46875 C-7 3 -7 3 -5 3 Z " fill="#D17EB1" transform="translate(499,255)"/>
<path d="M0 0 C0.66 0.33 1.32 0.66 2 1 C2 12.16965165 -6.83546469 20.18617867 -14 28 C-14.66 27.34 -15.32 26.68 -16 26 C-15.00419922 24.98292969 -15.00419922 24.98292969 -13.98828125 23.9453125 C-7.19780746 16.788054 -1.71616205 10.01389403 0 0 Z " fill="#669BD4" transform="translate(474,410)"/>
<path d="M0 0 C-2.35670472 5.68683096 -7.42792786 9.09561572 -12 13 C-13.37478516 14.18722656 -13.37478516 14.18722656 -14.77734375 15.3984375 C-15.65519531 16.13320313 -16.53304687 16.86796875 -17.4375 17.625 C-18.24058594 18.29789062 -19.04367188 18.97078125 -19.87109375 19.6640625 C-20.57363281 20.10492188 -21.27617187 20.54578125 -22 21 C-22.99 20.67 -23.98 20.34 -25 20 C-24.09378906 19.2265625 -23.18757812 18.453125 -22.25390625 17.65625 C-21.02333956 16.60428122 -19.79287791 15.55218957 -18.5625 14.5 C-17.92666992 13.95698242 -17.29083984 13.41396484 -16.63574219 12.85449219 C-12.24031894 9.09111968 -7.92049081 5.25729602 -3.671875 1.328125 C-2 0 -2 0 0 0 Z " fill="#C0DE8D" transform="translate(243,306)"/>
<path d="M0 0 C0.33 0.99 0.66 1.98 1 3 C-4.94 8.94 -10.88 14.88 -17 21 C-17.99 20.67 -18.98 20.34 -20 20 C-13.4 13.4 -6.8 6.8 0 0 Z " fill="#F2EE39" transform="translate(418,284)"/>
<path d="M0 0 C3.42808429 0.6146544 5.48880574 1.89148943 8.22265625 4.01953125 C9.00833984 4.62990234 9.79402344 5.24027344 10.60351562 5.86914062 C11.41498047 6.51044922 12.22644531 7.15175781 13.0625 7.8125 C13.87783203 8.44220703 14.69316406 9.07191406 15.53320312 9.72070312 C19.20238005 12.59393699 22.31863418 15.15076442 25 19 C21.21684503 19 20.74179954 18.12205431 18.0625 15.5625 C13.42182575 11.27350782 8.51431794 7.58487184 3.40625 3.8828125 C1 2 1 2 0 0 Z " fill="#0582C9" transform="translate(258,195)"/>
<path d="M0 0 C-1.39347376 3.15204981 -3.02485079 5.26171773 -5.4765625 7.671875 C-6.48203125 8.66767578 -6.48203125 8.66767578 -7.5078125 9.68359375 C-8.20648438 10.36550781 -8.90515625 11.04742187 -9.625 11.75 C-10.33140625 12.44738281 -11.0378125 13.14476562 -11.765625 13.86328125 C-13.50598703 15.58012488 -15.25084981 17.29211832 -17 19 C-17.99 18.67 -18.98 18.34 -20 18 C-17.04974274 14.99196428 -14.08850331 11.9949821 -11.125 9 C-10.28324219 8.14148438 -9.44148437 7.28296875 -8.57421875 6.3984375 C-7.76855469 5.58632813 -6.96289062 4.77421875 -6.1328125 3.9375 C-5.38918457 3.18339844 -4.64555664 2.42929687 -3.87939453 1.65234375 C-2 0 -2 0 0 0 Z " fill="#85D1C4" transform="translate(219,481)"/>
<path d="M0 0 C3.80231917 1.26743972 4.16460223 2.49312268 6.13671875 5.91015625 C7.00200195 7.39418945 7.00200195 7.39418945 7.88476562 8.90820312 C8.47966797 9.94912109 9.07457031 10.99003906 9.6875 12.0625 C10.29400391 13.10728516 10.90050781 14.15207031 11.52539062 15.22851562 C13.02501285 17.81447836 14.51610023 20.40499351 16 23 C15.34 23.66 14.68 24.32 14 25 C11.65950844 21.21270762 9.32883358 17.41947015 7 13.625 C6.33226562 12.54476563 5.66453125 11.46453125 4.9765625 10.3515625 C4.34492187 9.3203125 3.71328125 8.2890625 3.0625 7.2265625 C2.18271484 5.79691162 2.18271484 5.79691162 1.28515625 4.33837891 C0 2 0 2 0 0 Z " fill="#4AC5DF" transform="translate(47,408)"/>
<path d="M0 0 C0.66 0.33 1.32 0.66 2 1 C0.625 3.5 0.625 3.5 -1 6 C-1.66 6 -2.32 6 -3 6 C-1.125 1.125 -1.125 1.125 0 0 Z M-4 6 C-3.34 6.33 -2.68 6.66 -2 7 C-1.78567421 13.64409958 -2.48766299 19.53205867 -4 26 C-4.66 26 -5.32 26 -6 26 C-5.34 19.4 -4.68 12.8 -4 6 Z " fill="#A8DAA7" transform="translate(192,349)"/>
<path d="M0 0 C0.33 0 0.66 0 1 0 C1 7.59 1 15.18 1 23 C1.66 23 2.32 23 3 23 C2.84152588 23.5662207 2.68305176 24.13244141 2.51977539 24.71582031 C1.99214152 27.0345345 1.795844 29.17358397 1.68359375 31.546875 C1.64169922 32.39121094 1.59980469 33.23554688 1.55664062 34.10546875 C1.51732422 34.97816406 1.47800781 35.85085937 1.4375 36.75 C1.39431641 37.63816406 1.35113281 38.52632812 1.30664062 39.44140625 C1.20086385 41.62745963 1.09877454 43.81362089 1 46 C0.67 46 0.34 46 0 46 C0 30.82 0 15.64 0 0 Z " fill="#1D2C69" transform="translate(0,191)"/>
<path d="M0 0 C0.99 0.33 1.98 0.66 3 1 C-2.28 6.28 -7.56 11.56 -13 17 C-13.99 16.67 -14.98 16.34 -16 16 C-10.72 10.72 -5.44 5.44 0 0 Z " fill="#9FD4AD" transform="translate(264,435)"/>
<path d="M0 0 C0.66 0.33 1.32 0.66 2 1 C-0.06296281 9.25185125 -5.39408934 14.96692521 -12 20 C-12 19.01 -12 18.02 -12 17 C-11.38125 16.7525 -10.7625 16.505 -10.125 16.25 C-7.55312104 14.73713002 -7.24020597 13.66903641 -6 11 C-5.15326168 9.45424095 -4.2988887 7.91264311 -3.4375 6.375 C-2.25527911 4.26313955 -1.08234999 2.16469998 0 0 Z " fill="#EC2093" transform="translate(549,405)"/>
<path d="M0 0 C0.99 0.33 1.98 0.66 3 1 C-1.95 5.95 -6.9 10.9 -12 16 C-12.99 15.67 -13.98 15.34 -15 15 C-10.05 10.05 -5.1 5.1 0 0 Z " fill="#BCDD8F" transform="translate(310,390)"/>
<path d="M0 0 C3.37999688 0.61303865 5.4145584 1.83863269 8.109375 3.94140625 C8.86347656 4.52470703 9.61757812 5.10800781 10.39453125 5.70898438 C11.17183594 6.32064453 11.94914063 6.93230469 12.75 7.5625 C13.54277344 8.17802734 14.33554688 8.79355469 15.15234375 9.42773438 C17.10616775 10.94606748 19.0550928 12.47027276 21 14 C20.34 14.66 19.68 15.32 19 16 C16.01604595 13.71451289 13.03868445 11.42059283 10.0625 9.125 C9.21236328 8.47402344 8.36222656 7.82304687 7.48632812 7.15234375 C6.67744141 6.52714844 5.86855469 5.90195313 5.03515625 5.2578125 C4.2862915 4.6817627 3.53742676 4.10571289 2.76586914 3.51220703 C1 2 1 2 0 0 Z " fill="#027AC1" transform="translate(210,158)"/>
<path d="M0 0 C0 3 0 3 -2.4140625 5.55859375 C-3.47671756 6.52670181 -4.54742633 7.48602537 -5.625 8.4375 C-6.14707031 8.91509766 -6.66914062 9.39269531 -7.20703125 9.88476562 C-10.61550993 12.95239644 -14.12974479 15.54186494 -18 18 C-18 15 -18 15 -16.77832031 13.60546875 C-16.21725586 13.13753906 -15.65619141 12.66960938 -15.078125 12.1875 C-14.15773438 11.41019531 -14.15773438 11.41019531 -13.21875 10.6171875 C-12.5690625 10.08351563 -11.919375 9.54984375 -11.25 9 C-10.61578125 8.46632813 -9.9815625 7.93265625 -9.328125 7.3828125 C-6.28254078 4.83213572 -3.21407139 2.33750647 0 0 Z " fill="#F48524" transform="translate(589,7)"/>
<path d="M0 0 C0.66 0 1.32 0 2 0 C0.70527917 5.25687856 -1.75885386 8.26398026 -5.625 11.875 C-6.140625 12.37257812 -6.65625 12.87015625 -7.1875 13.3828125 C-8.44935632 14.5979334 -9.72346286 15.80031125 -11 17 C-11.99 16.67 -12.98 16.34 -14 16 C-13.15695312 15.18015625 -12.31390625 14.3603125 -11.4453125 13.515625 C-10.33827684 12.42735266 -9.23152061 11.33879602 -8.125 10.25 C-7.56941406 9.71117187 -7.01382812 9.17234375 -6.44140625 8.6171875 C-2.55991414 4.78524313 -2.55991414 4.78524313 0 0 Z " fill="#FAF412" transform="translate(467,234)"/>
<path d="M0 0 C0.66 0 1.32 0 2 0 C0.35044362 4.08931941 -2.57403316 6.97964822 -5.5625 10.125 C-9.18633907 13.76403407 -9.18633907 13.76403407 -12 18 C-12.99 17.67 -13.98 17.34 -15 17 C-13.87851562 15.78763672 -13.87851562 15.78763672 -12.734375 14.55078125 C-11.73949763 13.47143316 -10.74471077 12.39200163 -9.75 11.3125 C-9.25886719 10.78205078 -8.76773437 10.25160156 -8.26171875 9.70507812 C-5.98341679 7.22932333 -3.8246765 4.77287637 -1.765625 2.10546875 C-1.18296875 1.41066406 -0.6003125 0.71585937 0 0 Z " fill="#3DA1DC" transform="translate(457,437)"/>
<path d="M0 0 C0 3 0 3 -2.51953125 5.62890625 C-3.60963132 6.61518726 -4.70767034 7.59274755 -5.8125 8.5625 C-6.35970703 9.05685547 -6.90691406 9.55121094 -7.47070312 10.06054688 C-9.8968145 12.23375452 -12.2860722 14.1907148 -15 16 C-15.99 15.67 -16.98 15.34 -18 15 C-15.75131288 13.0609583 -13.50111139 11.12372378 -11.25 9.1875 C-10.61578125 8.64029297 -9.9815625 8.09308594 -9.328125 7.52929688 C-6.28730038 4.91608821 -3.25718629 2.3441871 0 0 Z " fill="#FADE16" transform="translate(474,106)"/>
<path d="M0 0 C0 3 0 3 -2.484375 5.62890625 C-3.5652337 6.61525637 -4.65416609 7.59281441 -5.75 8.5625 C-6.28882813 9.05685547 -6.82765625 9.55121094 -7.3828125 10.06054688 C-10.08968312 12.5000315 -12.6107674 14.60975653 -16 16 C-14.41993098 11.97970604 -11.75168065 9.71265078 -8.5625 6.875 C-7.59441406 6.00617188 -6.62632812 5.13734375 -5.62890625 4.2421875 C-3 2 -3 2 0 0 Z " fill="#F9F114" transform="translate(395,174)"/>
<path d="M0 0 C0.33 0.99 0.66 1.98 1 3 C-2.63 6.63 -6.26 10.26 -10 14 C-10.66 13.34 -11.32 12.68 -12 12 C-8.04 8.04 -4.08 4.08 0 0 Z " fill="#A08CC4" transform="translate(439,311)"/>
<path d="M0 0 C6.27 0 12.54 0 19 0 C19 0.66 19 1.32 19 2 C15.13276369 3.26582219 11.26848738 3.1118765 7.25 3.0625 C6.55261719 3.05798828 5.85523438 3.05347656 5.13671875 3.04882812 C3.42444197 3.0371002 1.71220967 3.01916653 0 3 C0 2.01 0 1.02 0 0 Z " fill="#0D9CDE" transform="translate(130,236)"/>
<path d="M0 0 C0 3 0 3 -2.51953125 5.6640625 C-3.60949211 6.65953347 -4.70753635 7.64620867 -5.8125 8.625 C-6.35970703 9.12773437 -6.90691406 9.63046875 -7.47070312 10.1484375 C-9.95526918 12.38906434 -11.79353423 13.93117808 -15 15 C-13.4614092 11.19263971 -11.12165284 9.06130455 -8.0625 6.375 C-7.18722656 5.59898437 -6.31195313 4.82296875 -5.41015625 4.0234375 C-3 2 -3 2 0 0 Z " fill="#EAEA4F" transform="translate(323,236)"/>
<path d="M0 0 C0.66 0 1.32 0 2 0 C-0.60771776 7.60584347 -5.64432092 11.51091599 -12 16 C-12.66 15.34 -13.32 14.68 -14 14 C-13.40832031 13.57589844 -12.81664062 13.15179688 -12.20703125 12.71484375 C-7.04922777 8.8864578 -3.57344688 5.30602719 0 0 Z " fill="#E58096" transform="translate(542,236)"/>
<path d="M0 0 C0.99 0.33 1.98 0.66 3 1 C2.54109375 1.42410156 2.0821875 1.84820312 1.609375 2.28515625 C-2.52359619 6.23579048 -5.40161123 9.90715802 -8 15 C-8.66 14.34 -9.32 13.68 -10 13 C-3.84965831 3.40546697 -3.84965831 3.40546697 0 0 Z " fill="#998FC7" transform="translate(487,362)"/>
<path d="M0 0 C0.99 0.33 1.98 0.66 3 1 C-7.37357631 10.59453303 -7.37357631 10.59453303 -13 14 C-13 13.01 -13 12.02 -13 11 C-10.6640625 8.80859375 -10.6640625 8.80859375 -7.625 6.4375 C-3.67969922 3.36808795 -3.67969922 3.36808795 0 0 Z " fill="#FAA120" transform="translate(534,54)"/>
<path d="M0 0 C6.49349016 2.64549599 10.17635572 8.42840405 14 14 C13.34 14.66 12.68 15.32 12 16 C11.63648438 15.40832031 11.27296875 14.81664062 10.8984375 14.20703125 C7.70158407 9.18223342 4.66331835 5.66403584 0 2 C0 1.34 0 0.68 0 0 Z " fill="#E563A7" transform="translate(535,360)"/>
<path d="M0 0 C0 3 0 3 -1.28515625 4.62573242 C-2.16494141 5.4819519 -2.16494141 5.4819519 -3.0625 6.35546875 C-3.69414062 6.97744141 -4.32578125 7.59941406 -4.9765625 8.24023438 C-5.64429688 8.88283203 -6.31203125 9.52542969 -7 10.1875 C-8.00160156 11.16879883 -8.00160156 11.16879883 -9.0234375 12.16992188 C-10.67578441 13.78686135 -12.33471601 15.39640491 -14 17 C-14.33 16.01 -14.66 15.02 -15 14 C-14.08476562 13.15695312 -13.16953125 12.31390625 -12.2265625 11.4453125 C-11.02602139 10.33856366 -9.82550167 9.23179162 -8.625 8.125 C-8.02171875 7.56941406 -7.4184375 7.01382812 -6.796875 6.44140625 C-6.21679688 5.90644531 -5.63671875 5.37148438 -5.0390625 4.8203125 C-4.50490723 4.32805176 -3.97075195 3.83579102 -3.42041016 3.32861328 C-2.25855182 2.24184238 -1.12494128 1.12494128 0 0 Z " fill="#F8F42A" transform="translate(434,269)"/>
<path d="M0 0 C0.33 0.99 0.66 1.98 1 3 C-2.3 6.3 -5.6 9.6 -9 13 C-9.66 12.34 -10.32 11.68 -11 11 C-7.37 7.37 -3.74 3.74 0 0 Z " fill="#E1E861" transform="translate(370,331)"/>
<path d="M0 0 C0.99 0.33 1.98 0.66 3 1 C-2 4 -7 7 -12 10 C-12 9.01 -12 8.02 -12 7 C-9.8828125 5.4296875 -9.8828125 5.4296875 -7.125 3.875 C-6.22007812 3.35679687 -5.31515625 2.83859375 -4.3828125 2.3046875 C-2.93502074 1.51196217 -1.47635075 0.73817538 0 0 Z " fill="#0AA4DB" transform="translate(137,324)"/>
<path d="M0 0 C0.66 0.33 1.32 0.66 2 1 C-2.95 5.95 -7.9 10.9 -13 16 C-13.66 15.34 -14.32 14.68 -15 14 C-14.33613281 13.40832031 -13.67226563 12.81664062 -12.98828125 12.20703125 C-8.55061038 8.2358017 -4.14213205 4.28020312 0 0 Z " fill="#B8E19E" transform="translate(293,407)"/>
<path d="M0 0 C0.66 0 1.32 0 2 0 C2.26554687 0.61488281 2.53109375 1.22976563 2.8046875 1.86328125 C3.15789062 2.67152344 3.51109375 3.47976563 3.875 4.3125 C4.22304687 5.11300781 4.57109375 5.91351563 4.9296875 6.73828125 C6.02571894 9.1961834 6.02571894 9.1961834 8 12 C7.625 14.1875 7.625 14.1875 7 16 C0.29612756 5.62642369 0.29612756 5.62642369 0 0 Z " fill="#44BEE4" transform="translate(112,372)"/>
<path d="M0 0 C0.66 0.66 1.32 1.32 2 2 C-1.34939881 4.02558881 -3.86962551 4.21738987 -7.75 4.125 C-8.73484375 4.10695313 -9.7196875 4.08890625 -10.734375 4.0703125 C-11.85585937 4.03550781 -11.85585937 4.03550781 -13 4 C-13 3.34 -13 2.68 -13 2 C-10.87745145 1.61136435 -8.75183172 1.23946791 -6.625 0.875 C-4.84996094 0.56175781 -4.84996094 0.56175781 -3.0390625 0.2421875 C-2.03617188 0.16226563 -1.03328125 0.08234375 0 0 Z " fill="#74D2D6" transform="translate(150,546)"/>
<path d="M0 0 C-1.10789408 3.32368224 -1.48436217 3.61563093 -4.375 5.25 C-5.28378906 5.78367187 -5.28378906 5.78367187 -6.2109375 6.328125 C-8 7 -8 7 -11 6 C-3.28571429 0 -3.28571429 0 0 0 Z M-14 6 C-13.01 6 -12.02 6 -11 6 C-11 6.66 -11 7.32 -11 8 C-11.99 7.67 -12.98 7.34 -14 7 C-14 6.67 -14 6.34 -14 6 Z " fill="#8BD3C3" transform="translate(174,392)"/>
<path d="M0 0 C0.99 0.33 1.98 0.66 3 1 C0.03 3.97 -2.94 6.94 -6 10 C-6.99 9.67 -7.98 9.34 -9 9 C-6.03 6.03 -3.06 3.06 0 0 Z " fill="#E1DF45" transform="translate(397,305)"/>
<path d="M0 0 C0.66 0 1.32 0 2 0 C0.59928507 5.29158974 -2.85487245 7.77478044 -7 11 C-7.66 10.34 -8.32 9.68 -9 9 C-8.43410156 8.51789063 -7.86820313 8.03578125 -7.28515625 7.5390625 C-6.55167969 6.90742188 -5.81820312 6.27578125 -5.0625 5.625 C-4.33160156 4.99851562 -3.60070312 4.37203125 -2.84765625 3.7265625 C-0.91619094 2.12252286 -0.91619094 2.12252286 0 0 Z " fill="#F10A91" transform="translate(603,485)"/>
<path d="M0 0 C0.99 0.33 1.98 0.66 3 1 C-0.96 4.3 -4.92 7.6 -9 11 C-9 8 -9 8 -7.03125 5.95703125 C-6.1959375 5.24933594 -5.360625 4.54164063 -4.5 3.8125 C-3.6646875 3.09707031 -2.829375 2.38164062 -1.96875 1.64453125 C-1.3190625 1.10183594 -0.669375 0.55914062 0 0 Z " fill="#B8DE9A" transform="translate(217,327)"/>
<path d="M0 0 C0.66 0 1.32 0 2 0 C0.6213147 3.09862934 -0.97023198 5.24123432 -3.375 7.625 C-4.25285156 8.51058594 -4.25285156 8.51058594 -5.1484375 9.4140625 C-7.0104347 11.00893774 -8.76818495 12.00698978 -11 13 C-9.63696103 9.84456479 -8.1817387 8.06811867 -5.5 5.9375 C-3.06335088 3.99127814 -1.77737879 2.66606818 0 0 Z " fill="#2C3596" transform="translate(92,216)"/>
<path d="M0 0 C0.33 0.66 0.66 1.32 1 2 C-0.43359375 4.6015625 -0.43359375 4.6015625 -2.4375 7.625 C-3.09621094 8.62789062 -3.75492188 9.63078125 -4.43359375 10.6640625 C-4.95050781 11.43492187 -5.46742188 12.20578125 -6 13 C-6.66 12.34 -7.32 11.68 -8 11 C-7.04801289 9.35048774 -6.08820855 7.70548492 -5.125 6.0625 C-4.59132812 5.14597656 -4.05765625 4.22945312 -3.5078125 3.28515625 C-2 1 -2 1 0 0 Z " fill="#068BD1" transform="translate(177,212)"/>
<path d="M0 0 C4.83540096 2.61111652 8.87103901 5.37457083 13 9 C12.01 9.33 11.02 9.66 10 10 C7.51953125 8.41796875 7.51953125 8.41796875 4.8125 6.1875 C3.91144531 5.45917969 3.01039063 4.73085937 2.08203125 3.98046875 C1.39496094 3.32691406 0.70789063 2.67335937 0 2 C0 1.34 0 0.68 0 0 Z " fill="#0484CA" transform="translate(245,184)"/>
<path d="M0 0 C4.83540096 2.61111652 8.87103901 5.37457083 13 9 C12.01 9.33 11.02 9.66 10 10 C7.51953125 8.41796875 7.51953125 8.41796875 4.8125 6.1875 C3.91144531 5.45917969 3.01039063 4.73085937 2.08203125 3.98046875 C1.39496094 3.32691406 0.70789063 2.67335937 0 2 C0 1.34 0 0.68 0 0 Z " fill="#0180C8" transform="translate(232,174)"/>
<path d="M0 0 C-3.84700632 2.08379509 -7.90054429 3.49686624 -12 5 C-12 4.01 -12 3.02 -12 2 C-4.71428571 -1.57142857 -4.71428571 -1.57142857 0 0 Z " fill="#C085B8" transform="translate(506,355)"/>
<path d="M0 0 C0 3 0 3 -1.96875 5.04296875 C-2.8040625 5.75066406 -3.639375 6.45835938 -4.5 7.1875 C-5.3353125 7.90292969 -6.170625 8.61835937 -7.03125 9.35546875 C-7.6809375 9.89816406 -8.330625 10.44085938 -9 11 C-9.66 10.34 -10.32 9.68 -11 9 C-7.37 6.03 -3.74 3.06 0 0 Z " fill="#F78C22" transform="translate(567,26)"/>
<path d="M0 0 C0.99 0.33 1.98 0.66 3 1 C0.36 3.64 -2.28 6.28 -5 9 C-5.66 8.34 -6.32 7.68 -7 7 C-4.69 4.69 -2.38 2.38 0 0 Z " fill="#BC83BB" transform="translate(462,288)"/>
<path d="M0 0 C4.31226893 2.36752019 8.33715165 4.67013786 12 8 C12 8.66 12 9.32 12 10 C9.00745382 8.59808647 6.4045389 6.96632511 3.75 5 C3.04359375 4.484375 2.3371875 3.96875 1.609375 3.4375 C0.81273437 2.7259375 0.81273437 2.7259375 0 2 C0 1.34 0 0.68 0 0 Z " fill="#0B71BB" transform="translate(197,147)"/>
<path d="M0 0 C0 3 0 3 -1.64453125 4.859375 C-2.35996094 5.48328125 -3.07539062 6.1071875 -3.8125 6.75 C-4.52019531 7.38421875 -5.22789062 8.0184375 -5.95703125 8.671875 C-6.63121094 9.11015625 -7.30539062 9.5484375 -8 10 C-8.99 9.67 -9.98 9.34 -11 9 C-7.37 6.03 -3.74 3.06 0 0 Z " fill="#FAAE20" transform="translate(517,69)"/>
<path d="M0 0 C0.556875 0.78375 1.11375 1.5675 1.6875 2.375 C4.07668565 5.08704858 5.60073413 5.96133543 9 7 C8.67 7.66 8.34 8.32 8 9 C3.75177626 8.52797514 1.80010291 6.03344482 -1 3 C-0.67 2.01 -0.34 1.02 0 0 Z " fill="#F20690" transform="translate(459,488)"/>
<path d="M0 0 C-1.59241408 4.29951803 -4.35540725 6.39671947 -8 9 C-8.99 8.67 -9.98 8.34 -11 8 C-9.54712339 6.66072279 -8.08752741 5.32873153 -6.625 4 C-5.81289063 3.2575 -5.00078125 2.515 -4.1640625 1.75 C-2 0 -2 0 0 0 Z " fill="#DDE257" transform="translate(308,250)"/>
<path d="M0 0 C3.29963329 1.09987776 3.61064772 1.45586748 5.25 4.3125 C5.60578125 4.90675781 5.9615625 5.50101562 6.328125 6.11328125 C7.15994803 8.4491564 6.7945524 9.69274206 6 12 C4.99466333 10.37829621 3.99588093 8.75252763 3 7.125 C2.443125 6.22007812 1.88625 5.31515625 1.3125 4.3828125 C0 2 0 2 0 0 Z " fill="#40C1E2" transform="translate(47,408)"/>
<path d="M0 0 C0.66 0.33 1.32 0.66 2 1 C0.74194623 5.50802601 -0.90407165 8.4912812 -4 12 C-3.45660208 7.43545749 -2.20536179 4.0271824 0 0 Z " fill="#F22D96" transform="translate(549,405)"/>
<path d="M0 0 C0.66 0.66 1.32 1.32 2 2 C-1.465 4.97 -1.465 4.97 -5 8 C-5 5 -5 5 -2.5 2.3125 C-1.675 1.549375 -0.85 0.78625 0 0 Z " fill="#8395CE" transform="translate(411,339)"/>
<path d="M0 0 C-1.51671964 4.55015893 -5.16891053 6.50057264 -9 9 C-9 6 -9 6 -7.5390625 4.39453125 C-6.59160156 3.61142578 -6.59160156 3.61142578 -5.625 2.8125 C-4.68527344 2.01779297 -4.68527344 2.01779297 -3.7265625 1.20703125 C-2 0 -2 0 0 0 Z " fill="#CCDA6B" transform="translate(279,275)"/>
<path d="M0 0 C0.99 0.33 1.98 0.66 3 1 C0.03 3.64 -2.94 6.28 -6 9 C-6.66 8.34 -7.32 7.68 -8 7 C-6.74057614 5.80040625 -5.46704714 4.61560557 -4.1875 3.4375 C-3.12595703 2.44556641 -3.12595703 2.44556641 -2.04296875 1.43359375 C-1.36878906 0.96050781 -0.69460938 0.48742187 0 0 Z " fill="#FDCD16" transform="translate(492,90)"/>
<path d="M0 0 C0.99 0.33 1.98 0.66 3 1 C0.69 3.64 -1.62 6.28 -4 9 C-4.99 8.67 -5.98 8.34 -7 8 C-4.69 5.36 -2.38 2.72 0 0 Z " fill="#2AA2DE" transform="translate(441,455)"/>
<path d="M0 0 C0.99 0 1.98 0 3 0 C3 0.66 3 1.32 3 2 C2.01 1.67 1.02 1.34 0 1 C0 0.67 0 0.34 0 0 Z M0 1 C-1 4 -1 4 -4.0625 5.6875 C-5.031875 6.120625 -6.00125 6.55375 -7 7 C-7 6.01 -7 5.02 -7 4 C-2.77777778 1 -2.77777778 1 0 1 Z " fill="#0CA2DE" transform="translate(118,238)"/>
<path d="M0 0 C2.53910197 0.38520564 3.72751123 0.70097943 5.484375 2.62890625 C5.90203125 3.26699219 6.3196875 3.90507812 6.75 4.5625 C7.17796875 5.20316406 7.6059375 5.84382812 8.046875 6.50390625 C8.36140625 6.99761719 8.6759375 7.49132812 9 8 C8.01 8 7.02 8 6 8 C4.39453125 6.25 4.39453125 6.25 2.8125 4 C2.28269531 3.2575 1.75289062 2.515 1.20703125 1.75 C0.80871094 1.1725 0.41039062 0.595 0 0 Z " fill="#F9A858" transform="translate(535,189)"/>
<path d="M0 0 C0.99 0.33 1.98 0.66 3 1 C-0.96 4.465 -0.96 4.465 -5 8 C-5.66 7.34 -6.32 6.68 -7 6 C-5.90716423 4.96704564 -4.80029421 3.94892165 -3.6875 2.9375 C-3.07261719 2.36902344 -2.45773437 1.80054688 -1.82421875 1.21484375 C-0.92123047 0.61349609 -0.92123047 0.61349609 0 0 Z " fill="#F2ED44" transform="translate(332,228)"/>
<path d="M0 0 C0.33 0.99 0.66 1.98 1 3 C-1.64 4.98 -4.28 6.96 -7 9 C-7 6 -7 6 -5.46875 4.39453125 C-4.49421875 3.61142578 -4.49421875 3.61142578 -3.5 2.8125 C-2.8503125 2.28269531 -2.200625 1.75289062 -1.53125 1.20703125 C-1.0259375 0.80871094 -0.520625 0.41039062 0 0 Z " fill="#F0EB2D" transform="translate(356,207)"/>
<path d="M0 0 C0.66 0 1.32 0 2 0 C3.60355101 3.50776784 4.22036864 6.14354879 4 10 C3.34 10 2.68 10 2 10 C1.34 6.7 0.68 3.4 0 0 Z " fill="#0178C0" transform="translate(177,181)"/>
<path d="M0 0 C4.51478398 0.53115106 7.34666857 2.36620292 11 5 C8 6 8 6 5.95703125 5.22265625 C5.24933594 4.83980469 4.54164063 4.45695313 3.8125 4.0625 C3.09707031 3.68222656 2.38164063 3.30195313 1.64453125 2.91015625 C1.10183594 2.60980469 0.55914063 2.30945313 0 2 C0 1.34 0 0.68 0 0 Z " fill="#FDBD44" transform="translate(522,180)"/>
<path d="M0 0 C0 3 0 3 -1.53125 4.60546875 C-2.1809375 5.12753906 -2.830625 5.64960937 -3.5 6.1875 C-4.1496875 6.71730469 -4.799375 7.24710937 -5.46875 7.79296875 C-5.9740625 8.19128906 -6.479375 8.58960937 -7 9 C-7 6 -7 6 -5.46875 4.39453125 C-4.49421875 3.61142578 -4.49421875 3.61142578 -3.5 2.8125 C-2.8503125 2.28269531 -2.200625 1.75289063 -1.53125 1.20703125 C-1.0259375 0.80871094 -0.520625 0.41039063 0 0 Z " fill="#FEE40A" transform="translate(474,106)"/>
<path d="M0 0 C0.99 0.33 1.98 0.66 3 1 C1.02 2.98 -0.96 4.96 -3 7 C-3.99 6.67 -4.98 6.34 -6 6 C-4.02 4.02 -2.04 2.04 0 0 Z " fill="#7CC8C3" transform="translate(205,493)"/>
<path d="M0 0 C3 1 3 1 4.16796875 2.84765625 C4.50441406 3.57855469 4.84085937 4.30945313 5.1875 5.0625 C5.53167969 5.79597656 5.87585938 6.52945312 6.23046875 7.28515625 C6.48441406 7.85105469 6.73835938 8.41695313 7 9 C6.01 9.495 6.01 9.495 5 10 C4.16121545 8.71186658 3.32913217 7.41936744 2.5 6.125 C2.0359375 5.40570313 1.571875 4.68640625 1.09375 3.9453125 C0 2 0 2 0 0 Z " fill="#52C7DE" transform="translate(62,433)"/>
<path d="M0 0 C3.9492568 0.55105909 7.34920174 1.38935371 11 3 C11 3.66 11 4.32 11 5 C6.87248551 4.39301257 3.6678852 2.96189209 0 1 C0 0.67 0 0.34 0 0 Z " fill="#68D1DB" transform="translate(128,395)"/>
<path d="M0 0 C0.66 0 1.32 0 2 0 C0.44499019 3.81684226 -2.03595495 6.19195732 -5 9 C-5 4.68381834 -2.86729652 3.07210341 0 0 Z " fill="#519FDC" transform="translate(457,437)"/>
<path d="M0 0 C0.66 0 1.32 0 2 0 C1.34 3.3 0.68 6.6 0 10 C-0.66 9.34 -1.32 8.68 -2 8 C-1.69347955 5.0574037 -1.32728846 2.65457692 0 0 Z " fill="#8397D0" transform="translate(476,377)"/>
<path d="M0 0 C0.66 0 1.32 0 2 0 C1.67 2.97 1.34 5.94 1 9 C0.34 9 -0.32 9 -1 9 C-0.67 6.03 -0.34 3.06 0 0 Z " fill="#F03B9A" transform="translate(551,396)"/>
<path d="M0 0 C-1.38009621 3.33523252 -2.84950652 5.18607951 -6 7 C-6.99 6.67 -7.98 6.34 -9 6 C-7.8803014 4.99406757 -6.7540588 3.9954151 -5.625 3 C-4.68527344 2.1646875 -4.68527344 2.1646875 -3.7265625 1.3125 C-2 0 -2 0 0 0 Z " fill="#D4E576" transform="translate(270,283)"/>
<path d="M0 0 C0 0.99 0 1.98 0 3 C-2.3125 5.25 -2.3125 5.25 -5 7 C-5.99 6.67 -6.98 6.34 -8 6 C-5.36 4.02 -2.72 2.04 0 0 Z " fill="#0B9AD3" transform="translate(108,245)"/>
<path d="M0 0 C0.66 0.66 1.32 1.32 2 2 C-2.455 4.97 -2.455 4.97 -7 8 C-4.9957983 3.9915966 -3.50944037 2.58590343 0 0 Z " fill="#2F3395" transform="translate(74,232)"/>
<path d="M0 0 C0.99 0.33 1.98 0.66 3 1 C-0.465 3.97 -0.465 3.97 -4 7 C-3.04065919 3.16263678 -2.76390737 2.40339772 0 0 Z " fill="#A58AC0" transform="translate(487,362)"/>
<path d="M0 0 C2.95409701 1.37154504 5.44008376 2.98863724 8 5 C7.01 5.33 6.02 5.66 5 6 C2.3125 4.1875 2.3125 4.1875 0 2 C0 1.34 0 0.68 0 0 Z " fill="#2E3295" transform="translate(2,274)"/>
<path d="M0 0 C3.465 1.98 3.465 1.98 7 4 C7 4.99 7 5.98 7 7 C1.125 3.375 1.125 3.375 0 0 Z " fill="#1858A9" transform="translate(162,120)"/>
<path d="M0 0 C4 2 4 2 5.25 4.625 C5.4975 5.40875 5.745 6.1925 6 7 C5.01 7.495 5.01 7.495 4 8 C2.68 5.36 1.36 2.72 0 0 Z " fill="#0C70BB" transform="translate(171,171)"/>
<path d="M0 0 C2.46800047 1.15173355 4.04783565 2.04783565 6 4 C5.67 4.99 5.34 5.98 5 7 C3.29115995 5.37660195 1.62553283 3.70680947 0 2 C0 1.34 0 0.68 0 0 Z " fill="#1666B3" transform="translate(164,163)"/>
<path d="M0 0 C3.79588866 0.54226981 5.47211993 2.20127563 8 5 C5 5 5 5 2.3125 2.5 C1.549375 1.675 0.78625 0.85 0 0 Z " fill="#1463AB" transform="translate(188,141)"/>
<path d="M0 0 C3.057952 1.73559438 5.63379989 3.38472619 8 6 C4.06830895 6 2.83572772 4.60580385 0 2 C0 1.34 0 0.68 0 0 Z " fill="#1663B3" transform="translate(179,133)"/>
<path d="M0 0 C3.79588866 0.54226981 5.47211993 2.20127563 8 5 C5 5 5 5 2.3125 2.5 C1.549375 1.675 0.78625 0.85 0 0 Z " fill="#204599" transform="translate(140,104)"/>
<path d="M0 0 C3.057952 1.73559438 5.63379989 3.38472619 8 6 C4.06830895 6 2.83572772 4.60580385 0 2 C0 1.34 0 0.68 0 0 Z " fill="#26409C" transform="translate(118,86)"/>
</svg>
